<?xml version="1.0" encoding="UTF-8" standalone="no"?>
<!-- Created with Inkscape (http://www.inkscape.org/) -->

<svg
   width="42.455906mm"
   height="65.70327mm"
   viewBox="0 0 42.455906 65.70327"
   version="1.1"
   id="svg3773"
   inkscape:version="1.1.1 (3bf5ae0, 2021-09-20)"
   sodipodi:docname="rocket.svg"
   xmlns:inkscape="http://www.inkscape.org/namespaces/inkscape"
   xmlns:sodipodi="http://sodipodi.sourceforge.net/DTD/sodipodi-0.dtd"
   xmlns="http://www.w3.org/2000/svg"
   xmlns:svg="http://www.w3.org/2000/svg">
  <sodipodi:namedview
     id="namedview3775"
     pagecolor="#ffffff"
     bordercolor="#666666"
     borderopacity="1.0"
     inkscape:pageshadow="2"
     inkscape:pageopacity="0.0"
     inkscape:pagecheckerboard="0"
     inkscape:document-units="mm"
     showgrid="false"
     inkscape:zoom="0.77593294"
     inkscape:cx="162.38517"
     inkscape:cy="30.286122"
     inkscape:window-width="3440"
     inkscape:window-height="1375"
     inkscape:window-x="1920"
     inkscape:window-y="0"
     inkscape:window-maximized="1"
     inkscape:current-layer="layer1" />
  <defs
     id="defs3770">
    <linearGradient
       id="SVGID_1_"
       gradientUnits="userSpaceOnUse"
       x1="1563.5149"
       y1="-2511.0737"
       x2="1705.5149"
       y2="-2737.0737"
       gradientTransform="matrix(0.26458333,0,0,0.26458333,-338.65911,863.29819)">
      <stop
         offset="0"
         style="stop-color:#4B2278"
         id="stop250" />
      <stop
         offset="1"
         style="stop-color:#006FDE"
         id="stop252" />
    </linearGradient>
    <linearGradient
       id="SVGID_00000029741780006922614780000013942634059325334429_"
       gradientUnits="userSpaceOnUse"
       x1="1549.978"
       y1="-2519.5793"
       x2="1691.978"
       y2="-2745.5793"
       gradientTransform="matrix(0.26458333,0,0,0.26458333,-338.65911,863.29819)">
      <stop
         offset="0"
         style="stop-color:#4B2278"
         id="stop257" />
      <stop
         offset="1"
         style="stop-color:#006FDE"
         id="stop259" />
    </linearGradient>
  </defs>
  <g
     inkscape:label="Layer 1"
     inkscape:groupmode="layer"
     id="layer1"
     transform="translate(-61.972968,-140.36997)">
    <path
       class="st3"
       d="m 89.939426,190.09237 c 0.846667,1.03187 1.296459,2.4077 1.031875,3.86291 -0.767291,-3.01625 -2.645833,-4.92125 -5.688541,-5.68854 1.243541,-0.18521 2.460625,0.13229 3.439583,0.74083 -0.291042,-0.52916 -0.529167,-1.03187 -0.740833,-1.53458 -2.06375,-4.86833 -1.005417,-8.89 -0.15875,-10.90083 l -4.074584,-1.69334 c -2.090208,5.00063 -6.376458,7.24959 -10.239375,8.22855 1.11125,0.44979 2.06375,1.27 2.592917,2.46062 -2.328333,-2.06375 -4.947708,-2.59292 -7.884583,-1.53458 1.11125,-1.03188 2.592917,-1.42875 3.995208,-1.27 -1.058333,-0.74084 -2.328333,-1.16417 -3.704166,-1.16417 -3.598334,0 -6.535209,2.91042 -6.535209,6.53521 0,3.43958 2.645834,6.24417 6.006042,6.50875 0.15875,0.0265 0.343958,0.0265 0.502708,0.0265 0.238125,0 0.47625,-0.0265 0.714375,-0.0265 0.767292,1.50812 2.090209,2.67229 3.677708,3.22792 -0.582083,-0.9525 -0.846666,-2.09021 -0.635,-3.3073 0.767292,3.01625 2.645834,4.92125 5.688542,5.68855 -1.719792,0.26458 -3.386667,-0.42334 -4.471458,-1.64042 -0.05292,0.29104 -0.07937,0.60854 -0.07937,0.92604 0,3.41312 2.645833,6.21771 5.979583,6.50875 0.185208,0.0265 0.370417,0.0265 0.555625,0.0265 2.751667,0 5.106458,-1.69334 6.058958,-4.1275 1.058334,0.74083 2.354792,1.19062 3.757084,1.19062 3.598333,0 6.535208,-2.91041 6.535208,-6.5352 0,-3.51896 -2.804583,-6.37646 -6.323542,-6.50875 z m -12.964583,5.66208 c -2.645833,-1.95792 -2.751667,-6.08542 0,-8.01688 -1.5875,2.6723 -1.5875,5.31813 0,8.01688 z"
       id="path255"
       style="fill:url(#SVGID_1_);stroke-width:0.264583" />
    <path
       style="fill:url(#SVGID_00000029741780006922614780000013942634059325334429_);stroke-width:0.264583"
       d="m 101.07838,141.35612 c -0.34395,-0.82021 -1.269996,-1.19063 -2.090204,-0.87313 -5.318125,2.19604 -10.371666,4.55083 -13.520208,9.15458 -1.666875,2.43417 -2.69875,5.29167 -3.254375,8.22855 -3.598333,1.74625 -7.170208,8.99583 -7.170208,8.99583 0,0 2.143125,0.66146 4.1275,1.21708 1.084791,0.29104 2.116666,0.55563 2.778125,0.635 0.132291,1.08479 0.3175,2.14313 0.529166,3.09563 0.105834,0.50271 0.47625,0.92604 0.9525,1.13771 l 5.688542,2.35479 c 0.396875,0.15875 0.846667,0.15875 1.217083,0 0.07937,-0.0265 1.931459,-1.27 2.804584,-1.93146 0.264583,0.21167 0.635,0.44979 1.058333,0.71437 1.957917,1.21709 5.132916,2.88396 5.132916,2.88396 0,0 2.592916,-7.64646 1.296456,-11.43 1.69334,-2.48708 2.98979,-5.23875 3.51896,-8.12271 1.03188,-5.50333 -0.9525,-10.95375 -3.06917,-16.0602 z m -6.932079,16.66875 c -1.666875,0 -2.989791,-1.34938 -2.989791,-2.9898 0,-1.66687 1.349375,-2.98979 2.989791,-2.98979 1.666875,0 2.989792,1.34938 2.989792,2.98979 0,1.64042 -1.349375,2.9898 -2.989792,2.9898 z"
       id="path262" />
  </g>
</svg>
