<?xml version="1.0" encoding="UTF-8" standalone="no"?>
<!-- Created with Inkscape (http://www.inkscape.org/) -->

<svg
   width="67.786247mm"
   height="55.297916mm"
   viewBox="0 0 67.786247 55.297916"
   version="1.1"
   id="svg4403"
   inkscape:version="1.1.1 (3bf5ae0, 2021-09-20)"
   sodipodi:docname="swoosh.svg"
   xmlns:inkscape="http://www.inkscape.org/namespaces/inkscape"
   xmlns:sodipodi="http://sodipodi.sourceforge.net/DTD/sodipodi-0.dtd"
   xmlns="http://www.w3.org/2000/svg"
   xmlns:svg="http://www.w3.org/2000/svg">
  <sodipodi:namedview
     id="namedview4405"
     pagecolor="#ffffff"
     bordercolor="#666666"
     borderopacity="1.0"
     inkscape:pageshadow="2"
     inkscape:pageopacity="0.0"
     inkscape:pagecheckerboard="0"
     inkscape:document-units="mm"
     showgrid="false"
     inkscape:zoom="0.77593294"
     inkscape:cx="631.49787"
     inkscape:cy="346.03506"
     inkscape:window-width="3440"
     inkscape:window-height="1375"
     inkscape:window-x="1920"
     inkscape:window-y="0"
     inkscape:window-maximized="1"
     inkscape:current-layer="layer1" />
  <defs
     id="defs4400">
    <linearGradient
       id="XMLID_00000067914726968579772060000004485168690414841217_"
       gradientUnits="userSpaceOnUse"
       x1="2262.5232"
       y1="-2581.8958"
       x2="2458.5232"
       y2="-2767.8958">
      <stop
         offset="0"
         style="stop-color:#4B2278"
         id="stop330" />
      <stop
         offset="1"
         style="stop-color:#006FDE"
         id="stop332" />
    </linearGradient>
    <linearGradient
       id="XMLID_00000128444623093022057790000012795495348216058247_"
       gradientUnits="userSpaceOnUse"
       x1="2419.8955"
       y1="-2632.5247"
       x2="2173.8955"
       y2="-2498.5247">
      <stop
         offset="0"
         style="stop-color:#4B2278"
         id="stop336" />
      <stop
         offset="1"
         style="stop-color:#006FDE"
         id="stop338" />
    </linearGradient>
    <linearGradient
       id="XMLID_00000121979226482458590050000014940526705717558401_"
       gradientUnits="userSpaceOnUse"
       x1="2412.3958"
       y1="-2555.4751"
       x2="2120.3958"
       y2="-2584.4751">
      <stop
         offset="0"
         style="stop-color:#4B2278"
         id="stop342" />
      <stop
         offset="1"
         style="stop-color:#006FDE"
         id="stop344" />
    </linearGradient>
  </defs>
  <g
     inkscape:label="Layer 1"
     inkscape:groupmode="layer"
     id="layer1"
     transform="translate(62.195075,-56.915914)">
    <g
       id="XMLID_1339_"
       transform="matrix(0.26458333,0,0,0.26458333,-628.58861,775.18028)">
      <linearGradient
         id="linearGradient4382"
         gradientUnits="userSpaceOnUse"
         x1="2262.5232"
         y1="-2581.8958"
         x2="2458.5232"
         y2="-2767.8958">
        <stop
           offset="0"
           style="stop-color:#4B2278"
           id="stop4378" />
        <stop
           offset="1"
           style="stop-color:#006FDE"
           id="stop4380" />
      </linearGradient>
      <path
         id="XMLID_1344_"
         style="fill:url(#XMLID_00000067914726968579772060000004485168690414841217_)"
         d="m 2292.4,-2714.7 c -57.7,0 -104.5,46.8 -104.5,104.5 0,3.3 0.2,6.6 0.5,9.8 3.4,1.8 6.9,3.5 10.6,5 26.9,11.2 55,12.2 78.7,4.7 -27.2,23.5 -71.3,28.9 -111.7,10.7 -9.2,-4.2 -17.6,-9.3 -25.1,-15.1 10.9,12.8 25.2,23.8 42.3,31.5 6.5,2.9 13,5.2 19.6,7 2.7,4.5 5.7,8.8 9,12.8 25.6,-0.2 53,-10.6 75.3,-31 21.5,-19.6 34.2,-44.7 37.4,-69.4 9.8,34.6 -3.9,76.9 -37.5,105.8 -22.3,19.2 -49.1,28.8 -74.2,28.8 16.4,5 34.7,5.2 52.9,0.4 8.5,2.3 17.5,3.5 26.7,3.5 57.7,0 104.5,-46.8 104.5,-104.5 0,-57.8 -46.8,-104.5 -104.5,-104.5 z m -17.4,65.6 c -1.2,-8 -7.5,-14.2 -15.4,-15.4 8,-1.2 14.2,-7.5 15.4,-15.4 1.2,8 7.5,14.2 15.4,15.4 -7.9,1.2 -14.2,7.4 -15.4,15.4 z m 34.2,-30.2 c -0.4,-2.9 -2.7,-5.1 -5.5,-5.5 2.9,-0.4 5.1,-2.7 5.5,-5.5 0.4,2.9 2.7,5.1 5.5,5.5 -2.8,0.4 -5,2.6 -5.5,5.5 z m 31.1,124.4 c -0.4,-2.6 -2.5,-4.7 -5.1,-5.1 2.6,-0.4 4.7,-2.5 5.1,-5.1 0.4,2.6 2.5,4.7 5.1,5.1 -2.6,0.4 -4.7,2.5 -5.1,5.1 z m 8.1,-47.3 c -0.6,-4.1 -3.9,-7.4 -8,-8 4.1,-0.6 7.4,-3.9 8,-8 0.6,4.1 3.9,7.4 8,8 -4.2,0.6 -7.4,3.8 -8,8 z m 20.8,27.2 c -0.3,-1.9 -1.7,-3.3 -3.6,-3.6 1.9,-0.3 3.3,-1.7 3.6,-3.6 0.3,1.9 1.7,3.3 3.6,3.6 -1.8,0.3 -3.3,1.7 -3.6,3.6 z" />
      <linearGradient
         id="linearGradient4389"
         gradientUnits="userSpaceOnUse"
         x1="2419.8955"
         y1="-2632.5247"
         x2="2173.8955"
         y2="-2498.5247">
        <stop
           offset="0"
           style="stop-color:#4B2278"
           id="stop4385" />
        <stop
           offset="1"
           style="stop-color:#006FDE"
           id="stop4387" />
      </linearGradient>
      <path
         id="XMLID_1342_"
         style="fill:url(#XMLID_00000128444623093022057790000012795495348216058247_)"
         d="m 2286.9,-2538.5 c -22.3,19.2 -49.1,28.8 -74.2,28.8 16.4,5 34.7,5.2 52.9,0.5 37,-20.3 62.1,-59.6 62.1,-104.8 0,-2.5 -0.1,-5 -0.2,-7.5 0,29.1 -14.1,60.2 -40.6,83 z" />
      <linearGradient
         id="linearGradient4396"
         gradientUnits="userSpaceOnUse"
         x1="2412.3958"
         y1="-2555.4751"
         x2="2120.3958"
         y2="-2584.4751">
        <stop
           offset="0"
           style="stop-color:#4B2278"
           id="stop4392" />
        <stop
           offset="1"
           style="stop-color:#006FDE"
           id="stop4394" />
      </linearGradient>
      <path
         id="XMLID_1340_"
         style="fill:url(#XMLID_00000121979226482458590050000014940526705717558401_)"
         d="m 2275,-2588.7 c -27.4,21.7 -70,26.3 -109.2,8.5 -9.2,-4.2 -17.6,-9.3 -25.1,-15.1 10.9,12.8 25.2,23.8 42.3,31.5 6.5,2.9 13,5.2 19.6,7 2.1,0.2 4.2,0.2 6.3,0.2 26.9,0.1 50.7,-12.5 66.1,-32.1 z" />
    </g>
  </g>
</svg>
