<?xml version="1.0" encoding="UTF-8" standalone="no"?>
<svg
   xmlns:dc="http://purl.org/dc/elements/1.1/"
   xmlns:cc="http://creativecommons.org/ns#"
   xmlns:rdf="http://www.w3.org/1999/02/22-rdf-syntax-ns#"
   xmlns:svg="http://www.w3.org/2000/svg"
   xmlns="http://www.w3.org/2000/svg"
   xmlns:xlink="http://www.w3.org/1999/xlink"
   xmlns:sodipodi="http://sodipodi.sourceforge.net/DTD/sodipodi-0.dtd"
   xmlns:inkscape="http://www.inkscape.org/namespaces/inkscape"
   version="1.1"
   id="Camada_1"
   x="0px"
   y="0px"
   viewBox="0 0 311.39999 335.5"
   xml:space="preserve"
   sodipodi:docname="favicon_purpleBG.svg"
   width="311.39999"
   height="335.5"
   inkscape:version="1.0.1 (3bc2e813f5, 2020-09-07)"><metadata
   id="metadata1649"><rdf:RDF><cc:Work
       rdf:about=""><dc:format>image/svg+xml</dc:format><dc:type
         rdf:resource="http://purl.org/dc/dcmitype/StillImage" /><dc:title></dc:title></cc:Work></rdf:RDF></metadata><defs
   id="defs1647" /><sodipodi:namedview
   pagecolor="#ffffff"
   bordercolor="#666666"
   borderopacity="1"
   objecttolerance="10"
   gridtolerance="10"
   guidetolerance="10"
   inkscape:pageopacity="0"
   inkscape:pageshadow="2"
   inkscape:window-width="2560"
   inkscape:window-height="1387"
   id="namedview1645"
   showgrid="false"
   fit-margin-top="0"
   fit-margin-left="0"
   fit-margin-right="0"
   fit-margin-bottom="0"
   inkscape:zoom="0.32"
   inkscape:cx="811.26645"
   inkscape:cy="-764.90311"
   inkscape:window-x="2552"
   inkscape:window-y="-8"
   inkscape:window-maximized="1"
   inkscape:current-layer="Camada_1" />
<style
   type="text/css"
   id="style1249">
	.st0{fill:#662D91;}
	.st1{fill:#FFFFFF;}
	.st2{fill:#36204F;}
	.st3{fill:url(#SVGID_1_);}
	.st4{fill:url(#SVGID_00000054257414562981228120000001574687163085119653_);}
	.st5{fill:url(#SVGID_00000072998375269293171440000018213926298751993760_);}
	.st6{fill:url(#SVGID_00000014615508004562851300000006094527432216711301_);}
	.st7{fill:url(#SVGID_00000013161522689771818110000010315873926876005009_);}
	.st8{clip-path:url(#SVGID_00000144319605520673463540000011190800844866639500_);fill:#FFFFFF;}
	.st9{clip-path:url(#SVGID_00000144319605520673463540000011190800844866639500_);fill:#3375C6;}
	.st10{opacity:0.5;fill:url(#SVGID_00000103236622958962217100000000896203148096719288_);}
	.st11{opacity:0.39;fill:url(#SVGID_00000001625125440351536700000010266301937016667048_);}
	.st12{fill:url(#SVGID_00000124141742389249847090000005945901909340613275_);}
	.st13{fill:url(#XMLID_00000072986874545207087730000001673768990059418281_);}
	.st14{fill:url(#XMLID_00000053514400916280977180000006774919194279780226_);}
	.st15{fill:url(#XMLID_00000172411063983058279480000005865108757823933591_);}
</style>
<rect
   x="0"
   y="0"
   class="st0"
   width="311.39999"
   height="335.5"
   id="rect1251" />
<rect
   x="-459.79993"
   y="-3227.3"
   class="st0"
   width="1011"
   height="1080"
   id="rect1253" />
<rect
   x="-1379.8"
   y="-4410.2998"
   class="st0"
   width="1942"
   height="1104"
   id="rect1255" />
<g
   id="g1287"
   transform="translate(5.7000488,-4.8065186e-5)">
	<path
   class="st1"
   d="m -603.9,-3885.4 c -12.8,0 -23.2,10.4 -23.2,23.2 0,12.8 10.4,23.2 23.2,23.2 12.8,0 23.2,-10.4 23.2,-23.2 0,-12.8 -10.4,-23.2 -23.2,-23.2 z"
   id="path1257" />
	<path
   class="st1"
   d="m -632.3,-3830.4 c 0.8,0.3 1.6,0.5 2.4,0.5 1.6,0 3.1,-0.6 4.3,-1.8 2.4,-2.4 2.4,-6.3 0,-8.7 -1.2,-1.2 -2.8,-1.8 -4.4,-1.8 -1.6,0 -3.2,0.6 -4.4,1.8 -1.8,1.8 -2.3,4.5 -1.3,6.7 l -12.4,4.8 -51.6,61.4 1.1,1.1 61.4,-51.6 z"
   id="path1259" />
	<path
   class="st1"
   d="m -641.8,-3806 c 5.4,4.6 10.9,8.7 16.7,12.4 2.1,-0.8 6.7,-2.6 8.7,-3.8 -7.1,-4.1 -12.8,-8.3 -19.3,-13.8 z"
   id="path1261" />
	<path
   class="st1"
   d="m -570.6,-3906.5 -4.8,12.4 c -0.8,-0.3 -1.6,-0.5 -2.3,-0.5 -1.6,0 -3.1,0.6 -4.3,1.8 -2.4,2.4 -2.4,6.3 0,8.7 1.2,1.2 2.8,1.8 4.4,1.8 1.6,0 3.2,-0.6 4.4,-1.8 1.8,-1.8 2.3,-4.5 1.3,-6.7 l 12.4,-4.8 51.6,-61.4 -1.1,-1.1 z"
   id="path1263" />
	<path
   class="st1"
   d="m -578.5,-3903.2 c -7.4,-4.6 -16.1,-7.3 -25.4,-7.3 -26.6,0 -48.3,21.7 -48.3,48.3 0,9.3 2.7,18 7.3,25.4 l 2.6,-1 c 0.4,-2.6 1.6,-5 3.5,-7 0.4,-0.4 0.8,-0.7 1.3,-1.1 -2.4,-4.9 -3.8,-10.5 -3.8,-16.3 0,-20.6 16.8,-37.4 37.4,-37.4 5.9,0 11.4,1.4 16.3,3.8 0.3,-0.4 0.6,-0.9 1,-1.3 1.9,-1.9 4.3,-3.1 7,-3.5 z"
   id="path1265" />
	<path
   class="st1"
   d="m -603.9,-3824.8 c -5.9,0 -11.4,-1.4 -16.3,-3.8 -0.3,0.4 -0.6,0.9 -1,1.3 -1.9,1.9 -4.3,3.1 -7,3.5 l -1,2.6 c 7.4,4.6 16.1,7.3 25.4,7.3 26.6,0 48.3,-21.7 48.3,-48.3 0,-9.3 -2.7,-18 -7.3,-25.4 l -2.6,1 c -0.4,2.6 -1.6,5 -3.5,7 -0.4,0.4 -0.8,0.7 -1.3,1.1 2.4,4.9 3.8,10.5 3.8,16.3 -0.1,20.6 -16.9,37.4 -37.5,37.4 z"
   id="path1267" />
	<path
   class="st1"
   d="m -683.6,-3862.2 c -10,24.6 -10.5,48.8 0.1,65.7 l 5.3,-6.3 c -7.2,-13.1 -7.2,-30.8 -0.9,-49.5 5,9.7 11.4,19.2 19,28.1 l 5.1,-6 c -8.5,-10.1 -15.3,-20.9 -20.2,-31.9 6.4,-14.4 16.3,-28.9 29.4,-42 12.8,-12.8 27.2,-22.8 41.9,-29.4 10.8,4.8 21.7,11.5 32,20.2 l 6,-5.1 c -9,-7.7 -18.6,-14 -28.1,-18.9 3.2,-1.1 6.3,-2 9.4,-2.7 15.8,-3.6 29.6,-2.3 40.2,3.5 l 6.3,-5.3 c -12.5,-8 -29.3,-10.1 -48.2,-5.8 -5.9,1.3 -11.8,3.2 -17.7,5.7 -28.6,-11.7 -56.6,-10.4 -73.3,6.3 -12.9,12.9 -17.2,32.8 -12,55.9 1.3,5.8 3.3,11.7 5.7,17.5 z m 11.8,-68 c 13.2,-13.2 34.9,-15.1 58.1,-7.3 -13.2,6.8 -26.1,16.2 -37.6,27.8 -11.7,11.7 -21,24.6 -27.7,37.6 -1,-3.1 -2,-6.2 -2.7,-9.4 -4.6,-20.4 -1.1,-37.7 9.9,-48.7 z"
   id="path1269" />
	<path
   class="st1"
   d="m -552.7,-3894.1 c 8.6,10.3 15.4,21.2 20.2,31.9 l -0.1,0.3 c -6.6,14.7 -16.7,29.1 -29.2,41.6 -18.4,18.4 -40.1,31.1 -61.2,35.9 -15.8,3.6 -29.6,2.3 -40.2,-3.5 l -6.3,5.3 c 8.3,5.3 18.4,8 29.7,8 5.9,0 12.1,-0.7 18.5,-2.2 22.5,-5.1 45.6,-18.5 65,-37.9 11.4,-11.4 20.9,-24.3 27.8,-37.6 7.8,23.2 5.9,44.9 -7.3,58.1 -10,10 -25.7,13.7 -43.8,10.8 -3.4,2.1 -6.8,4 -10.3,5.7 7.7,2 15.1,3.1 22,3.1 15.2,0 28.3,-4.8 37.6,-14.1 24.2,-24.2 16.1,-72.3 -17.2,-111.4 z"
   id="path1271" />
	<path
   class="st1"
   d="m -529.6,-3921.7 c 4.4,8.1 6.1,18.2 5.1,29.5 2.3,3.6 4.4,7.3 6.2,10.9 3.8,-18.3 1.7,-34.5 -6.1,-46.8 z"
   id="path1273" />
	<path
   class="st1"
   d="m -435.9,-3887.5 h -41.6 v 56.7 h 9.7 v -19.7 h 0.7 l 31.1,-0.1 c 3,0 5.5,-1.1 7.6,-3.2 2.1,-2.1 3.2,-4.6 3.2,-7.5 v -15.5 c 0,-2.9 -1.1,-5.5 -3.2,-7.5 -2,-2.1 -4.5,-3.2 -7.5,-3.2 z m 1,26.3 c 0,0.6 -0.4,1 -1,1 h -30.8 c -0.6,0 -1,-0.4 -1,-1 v -15.5 c 0,-0.6 0.4,-1 1,-1 h 30.8 c 0.6,0 1,0.4 1,1 z"
   id="path1275" />
	<path
   class="st1"
   d="m -375.3,-3841.4 c 0,0.7 -0.5,1 -0.9,1 h -30.9 c -0.6,0 -1,-0.4 -1,-1 v -46.1 h -9.7 v 46.1 c 0,3 1,5.5 3.1,7.6 2.1,2.1 4.6,3.1 7.6,3.1 h 30.9 c 2.9,0 5.5,-1.1 7.5,-3.1 2.1,-2.1 3.2,-4.6 3.2,-7.6 v -46.1 h -9.8 z"
   id="path1277" />
	<polygon
   class="st1"
   points="-346,-3887.6 -355.7,-3887.6 -355.7,-3830.7 -309.6,-3830.7 -309.6,-3840.4 -346,-3840.4 "
   id="polygon1279" />
	<path
   class="st1"
   d="m -263.4,-3887.5 h -30.9 c -3,0 -5.5,1.1 -7.6,3.1 -2.1,2.1 -3.1,4.6 -3.1,7.6 v 11.9 c 0,3 1,5.5 3.1,7.6 2.1,2.1 4.6,3.1 7.6,3.1 h 30.9 c 0.4,0 0.9,0.3 0.9,1 v 11.9 c 0,0.7 -0.5,1 -0.9,1 h -30.9 c -0.6,0 -1,-0.4 -1,-1 v -4 h -9.7 v 4 c 0,3 1,5.5 3.1,7.6 2.1,2.1 4.6,3.1 7.6,3.1 h 30.9 c 2.9,0 5.5,-1.1 7.5,-3.1 2.1,-2.1 3.2,-4.6 3.2,-7.6 v -11.9 c 0,-3 -1.1,-5.5 -3.2,-7.6 -2.1,-2.1 -4.6,-3.1 -7.5,-3.1 h -30.9 c -0.6,0 -1,-0.4 -1,-1 v -11.9 c 0,-0.6 0.4,-1 1,-1 h 30.9 c 0.4,0 0.9,0.3 0.9,1 v 4 h 9.8 v -4 c 0,-3 -1.1,-5.5 -3.2,-7.6 -2,-2.1 -4.6,-3.1 -7.5,-3.1 z"
   id="path1281" />
	<path
   class="st1"
   d="m -201.5,-3887.5 h -30.8 c -3,0 -5.5,1.1 -7.6,3.1 -2.1,2.1 -3.1,4.6 -3.1,7.6 v 46.1 h 9.7 v -19.4 h 32.8 v 19.4 h 9.8 v -46.1 c 0,-3 -1.1,-5.5 -3.2,-7.6 -2.1,-2.1 -4.7,-3.1 -7.6,-3.1 z m 1,27.7 h -32.8 v -17 c 0,-0.6 0.4,-1 1,-1 h 30.8 c 0.6,0 1,0.4 1,1 z"
   id="path1283" />
	<path
   class="st1"
   d="m -132.5,-3853.7 c 2.1,-2.1 3.2,-4.6 3.2,-7.5 v -15.5 c 0,-2.9 -1.1,-5.5 -3.2,-7.5 -2.1,-2.1 -4.7,-3.2 -7.6,-3.2 h -41.5 v 56.7 h 9.7 v -19.8 h 15 l 0.1,0.2 16.5,19.6 h 10.9 v -2.1 l -14.8,-17.6 h 4 c 3,-0.1 5.6,-1.2 7.7,-3.3 z m -38.5,-6.5 c -0.6,0 -1,-0.4 -1,-1 v -15.5 c 0,-0.6 0.4,-1 1,-1 h 30.8 c 0.6,0 1,0.4 1,1 v 15.5 c 0,0.6 -0.4,1 -1,1 z"
   id="path1285" />
</g>
<g
   id="g1319"
   inkscape:export-xdpi="41.916901"
   inkscape:export-ydpi="41.916901"
   transform="translate(5.7000488,-4.8065186e-5)">
	<path
   class="st0"
   d="m -601.7,-5025.7 c -12.8,0 -23.2,10.4 -23.2,23.2 0,12.8 10.4,23.2 23.2,23.2 12.8,0 23.2,-10.4 23.2,-23.2 0,-12.8 -10.4,-23.2 -23.2,-23.2 z"
   id="path1289" />
	<path
   class="st0"
   d="m -630.2,-4970.6 c 0.8,0.3 1.6,0.5 2.4,0.5 1.6,0 3.1,-0.6 4.3,-1.8 2.4,-2.4 2.4,-6.3 0,-8.7 -1.2,-1.2 -2.8,-1.8 -4.4,-1.8 -1.6,0 -3.2,0.6 -4.4,1.8 -1.8,1.8 -2.3,4.5 -1.3,6.7 l -12.4,4.8 -51.6,61.4 1.1,1.1 61.4,-51.6 z"
   id="path1291" />
	<path
   class="st0"
   d="m -639.6,-4946.2 c 5.4,4.6 10.9,8.7 16.7,12.4 2.1,-0.8 6.7,-2.6 8.7,-3.8 -7.1,-4.1 -12.8,-8.3 -19.3,-13.8 z"
   id="path1293" />
	<path
   class="st0"
   d="m -568.4,-5046.7 -4.8,12.4 c -0.8,-0.3 -1.6,-0.5 -2.3,-0.5 -1.6,0 -3.1,0.6 -4.3,1.8 -2.4,2.4 -2.4,6.3 0,8.7 1.2,1.2 2.8,1.8 4.4,1.8 1.6,0 3.2,-0.6 4.4,-1.8 1.8,-1.8 2.3,-4.5 1.3,-6.7 l 12.4,-4.8 51.6,-61.4 -1.1,-1.1 z"
   id="path1295" />
	<path
   class="st0"
   d="m -576.3,-5043.5 c -7.4,-4.6 -16.1,-7.3 -25.4,-7.3 -26.6,0 -48.3,21.7 -48.3,48.3 0,9.3 2.7,18 7.3,25.4 l 2.6,-1 c 0.4,-2.6 1.6,-5 3.5,-7 0.4,-0.4 0.8,-0.7 1.3,-1.1 -2.4,-4.9 -3.8,-10.5 -3.8,-16.3 0,-20.6 16.8,-37.4 37.4,-37.4 5.9,0 11.4,1.4 16.3,3.8 0.3,-0.4 0.6,-0.9 1,-1.3 1.9,-1.9 4.3,-3.1 7,-3.5 z"
   id="path1297" />
	<path
   class="st0"
   d="m -601.7,-4965.1 c -5.9,0 -11.4,-1.4 -16.3,-3.8 -0.3,0.4 -0.6,0.9 -1,1.3 -1.9,1.9 -4.3,3.1 -7,3.5 l -1,2.6 c 7.4,4.6 16.1,7.3 25.4,7.3 26.6,0 48.3,-21.7 48.3,-48.3 0,-9.3 -2.7,-18 -7.3,-25.4 l -2.6,1 c -0.4,2.6 -1.6,5 -3.5,7 -0.4,0.4 -0.8,0.7 -1.3,1.1 2.4,4.9 3.8,10.5 3.8,16.3 -0.1,20.7 -16.9,37.4 -37.5,37.4 z"
   id="path1299" />
	<path
   class="st0"
   d="m -681.4,-5002.4 c -10,24.6 -10.5,48.8 0.1,65.7 l 5.3,-6.3 c -7.2,-13.1 -7.2,-30.8 -0.9,-49.5 5,9.7 11.4,19.2 19,28 l 5.1,-6 c -8.5,-10.1 -15.3,-20.9 -20.2,-31.9 6.4,-14.4 16.3,-28.9 29.4,-42 12.8,-12.8 27.2,-22.8 41.9,-29.4 10.8,4.8 21.7,11.5 32,20.2 l 6,-5.1 c -9,-7.7 -18.6,-14 -28.1,-18.9 3.2,-1.1 6.3,-2 9.4,-2.7 15.8,-3.6 29.6,-2.3 40.2,3.5 l 6.3,-5.3 c -12.5,-8 -29.3,-10.1 -48.2,-5.8 -5.9,1.3 -11.8,3.2 -17.7,5.7 -28.6,-11.7 -56.6,-10.4 -73.3,6.3 -12.9,12.9 -17.2,32.8 -12,55.9 1.3,5.9 3.3,11.8 5.7,17.6 z m 11.7,-68 c 13.2,-13.2 34.9,-15.1 58.1,-7.3 -13.2,6.8 -26.1,16.2 -37.6,27.8 -11.7,11.7 -21,24.6 -27.7,37.6 -1,-3.1 -2,-6.2 -2.7,-9.4 -4.5,-20.5 -1,-37.8 9.9,-48.7 z"
   id="path1301" />
	<path
   class="st0"
   d="m -550.5,-5034.4 c 8.6,10.3 15.4,21.2 20.2,31.9 l -0.1,0.3 c -6.6,14.7 -16.7,29.1 -29.2,41.6 -18.4,18.4 -40.1,31.1 -61.2,35.9 -15.8,3.6 -29.6,2.3 -40.2,-3.5 l -6.3,5.3 c 8.3,5.3 18.4,8 29.7,8 5.9,0 12.1,-0.7 18.5,-2.2 22.5,-5.1 45.6,-18.5 65,-37.9 11.4,-11.4 20.9,-24.3 27.8,-37.6 7.8,23.2 5.9,44.9 -7.3,58.1 -10,10 -25.7,13.7 -43.8,10.8 -3.4,2.1 -6.8,4 -10.3,5.7 7.7,2 15.1,3.1 22,3.1 15.2,0 28.3,-4.8 37.6,-14.1 24.2,-24.2 16.1,-72.3 -17.2,-111.4 z"
   id="path1303" />
	<path
   class="st0"
   d="m -527.4,-5061.9 c 4.4,8.1 6.1,18.2 5.1,29.5 2.3,3.6 4.4,7.3 6.2,10.9 3.8,-18.3 1.7,-34.5 -6.1,-46.8 z"
   id="path1305" />
	<path
   class="st0"
   d="m -433.7,-5027.7 h -41.6 v 56.7 h 9.7 v -19.7 h 0.7 l 31.1,-0.1 c 3,0 5.5,-1.1 7.6,-3.2 2.1,-2.1 3.2,-4.6 3.2,-7.5 v -15.5 c 0,-2.9 -1.1,-5.5 -3.2,-7.5 -2,-2.1 -4.6,-3.2 -7.5,-3.2 z m 1,26.3 c 0,0.6 -0.4,1 -1,1 h -30.8 c -0.6,0 -1,-0.4 -1,-1 v -15.5 c 0,-0.6 0.4,-1 1,-1 h 30.8 c 0.6,0 1,0.4 1,1 z"
   id="path1307" />
	<path
   class="st0"
   d="m -373.1,-4981.6 c 0,0.7 -0.5,1 -0.9,1 h -30.9 c -0.6,0 -1,-0.4 -1,-1 v -46.1 h -9.7 v 46.1 c 0,3 1,5.5 3.1,7.6 2.1,2.1 4.6,3.1 7.6,3.1 h 30.9 c 2.9,0 5.5,-1.1 7.5,-3.1 2.1,-2.1 3.2,-4.6 3.2,-7.6 v -46.1 h -9.8 z"
   id="path1309" />
	<polygon
   class="st0"
   points="-343.8,-5027.8 -353.6,-5027.8 -353.6,-4970.9 -307.4,-4970.9 -307.4,-4980.7 -343.8,-4980.7 "
   id="polygon1311" />
	<path
   class="st0"
   d="m -261.2,-5027.8 h -30.9 c -3,0 -5.5,1.1 -7.6,3.1 -2.1,2.1 -3.1,4.6 -3.1,7.6 v 11.9 c 0,3 1,5.5 3.1,7.6 2.1,2.1 4.6,3.1 7.6,3.1 h 30.9 c 0.4,0 0.9,0.3 0.9,1 v 11.9 c 0,0.7 -0.5,1 -0.9,1 h -30.9 c -0.6,0 -1,-0.4 -1,-1 v -4 h -9.7 v 4 c 0,3 1,5.5 3.1,7.6 2.1,2.1 4.6,3.1 7.6,3.1 h 30.9 c 2.9,0 5.5,-1.1 7.5,-3.1 2.1,-2.1 3.2,-4.6 3.2,-7.6 v -11.9 c 0,-3 -1.1,-5.5 -3.2,-7.6 -2.1,-2.1 -4.6,-3.1 -7.5,-3.1 h -30.9 c -0.6,0 -1,-0.4 -1,-1 v -11.9 c 0,-0.6 0.4,-1 1,-1 h 30.9 c 0.4,0 0.9,0.3 0.9,1 v 4 h 9.8 v -4 c 0,-3 -1.1,-5.5 -3.2,-7.6 -2,-2 -4.6,-3.1 -7.5,-3.1 z"
   id="path1313" />
	<path
   class="st0"
   d="m -199.3,-5027.8 h -30.8 c -3,0 -5.5,1.1 -7.6,3.1 -2.1,2.1 -3.1,4.6 -3.1,7.6 v 46.1 h 9.7 v -19.4 h 32.8 v 19.4 h 9.8 v -46.1 c 0,-3 -1.1,-5.5 -3.2,-7.6 -2.1,-2 -4.7,-3.1 -7.6,-3.1 z m 1,27.8 h -32.8 v -17 c 0,-0.6 0.4,-1 1,-1 h 30.8 c 0.6,0 1,0.4 1,1 z"
   id="path1315" />
	<path
   class="st0"
   d="m -130.4,-4993.9 c 2.1,-2.1 3.2,-4.6 3.2,-7.5 v -15.5 c 0,-2.9 -1.1,-5.5 -3.2,-7.5 -2.1,-2.1 -4.7,-3.2 -7.6,-3.2 h -41.5 v 56.7 h 9.7 v -19.8 h 15 l 0.1,0.2 16.5,19.6 h 10.9 v -2.1 l -14.8,-17.6 h 4 c 3.1,-0.1 5.6,-1.2 7.7,-3.3 z m -38.4,-6.5 c -0.6,0 -1,-0.4 -1,-1 v -15.5 c 0,-0.6 0.4,-1 1,-1 h 30.8 c 0.6,0 1,0.4 1,1 v 15.5 c 0,0.6 -0.4,1 -1,1 z"
   id="path1317" />
</g>
<g
   id="g1351"
   transform="translate(5.7000488,-4.8065186e-5)">
	<path
   class="st0"
   d="m -894.5,-2745.8 c -13.4,0 -24.2,10.9 -24.2,24.2 0,13.3 10.9,24.2 24.2,24.2 13.4,0 24.2,-10.9 24.2,-24.2 0,-13.3 -10.8,-24.2 -24.2,-24.2 z"
   id="path1321" />
	<path
   class="st0"
   d="m -924.2,-2688.3 c 0.8,0.3 1.6,0.5 2.5,0.5 1.6,0 3.3,-0.6 4.5,-1.9 2.5,-2.5 2.5,-6.6 0,-9.1 -1.3,-1.3 -2.9,-1.9 -4.6,-1.9 -1.7,0 -3.3,0.6 -4.6,1.9 -1.9,1.9 -2.4,4.7 -1.4,7 l -13,5.1 -53.9,64.2 1.1,1.1 64.2,-53.9 z"
   id="path1323" />
	<path
   class="st0"
   d="m -934.1,-2662.8 c 5.6,4.8 11.4,9.1 17.4,13 2.2,-0.8 7,-2.8 9.1,-3.9 -7.5,-4.3 -13.3,-8.6 -20.2,-14.4 z"
   id="path1325" />
	<path
   class="st0"
   d="m -859.7,-2767.8 -5.1,13 c -0.8,-0.3 -1.6,-0.5 -2.5,-0.5 -1.6,0 -3.3,0.6 -4.5,1.9 -2.5,2.5 -2.5,6.6 0,9.1 1.3,1.3 2.9,1.9 4.6,1.9 1.6,0 3.3,-0.6 4.6,-1.9 1.9,-1.9 2.4,-4.7 1.4,-7 l 13,-5.1 53.9,-64.2 -1.1,-1.1 z"
   id="path1327" />
	<path
   class="st0"
   d="m -868,-2764.4 c -7.7,-4.8 -16.8,-7.6 -26.5,-7.6 -27.8,0 -50.5,22.6 -50.5,50.5 0,9.7 2.8,18.8 7.6,26.5 l 2.7,-1.1 c 0.4,-2.7 1.6,-5.3 3.7,-7.3 0.4,-0.4 0.9,-0.7 1.3,-1.1 -2.5,-5.2 -4,-10.9 -4,-17.1 0,-21.6 17.5,-39.1 39.1,-39.1 6.1,0 11.9,1.5 17.1,4 0.3,-0.5 0.7,-0.9 1.1,-1.3 2,-2 4.5,-3.3 7.3,-3.7 z"
   id="path1329" />
	<path
   class="st0"
   d="m -894.5,-2682.5 c -6.1,0 -11.9,-1.5 -17.1,-4 -0.3,0.5 -0.7,0.9 -1.1,1.3 -2,2 -4.5,3.3 -7.3,3.7 l -1.1,2.7 c 7.7,4.8 16.8,7.6 26.5,7.6 27.8,0 50.5,-22.6 50.5,-50.5 0,-9.7 -2.8,-18.8 -7.6,-26.5 l -2.7,1.1 c -0.4,2.7 -1.6,5.3 -3.7,7.3 -0.4,0.4 -0.9,0.7 -1.3,1.1 2.5,5.2 4,10.9 4,17.1 0,21.6 -17.5,39.1 -39.1,39.1 z"
   id="path1331" />
	<path
   class="st0"
   d="m -977.8,-2721.5 c -10.5,25.7 -11,51 0.1,68.6 l 5.5,-6.6 c -7.5,-13.7 -7.5,-32.2 -0.9,-51.8 5.2,10.1 11.9,20 19.8,29.3 l 5.3,-6.3 c -8.9,-10.6 -16,-21.9 -21.1,-33.3 6.7,-15 17,-30.2 30.7,-43.9 13.4,-13.4 28.5,-23.9 43.8,-30.7 11.3,5 22.6,12.1 33.4,21.1 l 6.3,-5.3 c -9.4,-8 -19.4,-14.6 -29.4,-19.8 3.3,-1.1 6.6,-2 9.9,-2.8 16.5,-3.7 31,-2.4 42,3.7 l 6.6,-5.6 c -13.1,-8.3 -30.6,-10.5 -50.4,-6.1 -6.1,1.4 -12.3,3.4 -18.5,5.9 -29.9,-12.2 -59.2,-10.8 -76.6,6.6 -13.5,13.5 -17.9,34.3 -12.5,58.5 1.4,6.2 3.4,12.4 6,18.5 z m 12.3,-71.1 c 13.8,-13.8 36.5,-15.8 60.7,-7.6 -13.8,7.1 -27.3,17 -39.3,29 -12.3,12.3 -22,25.7 -28.9,39.3 -1.1,-3.3 -2.1,-6.5 -2.8,-9.8 -4.9,-21.4 -1.2,-39.5 10.3,-50.9 z"
   id="path1333" />
	<path
   class="st0"
   d="m -841,-2754.9 c 9,10.8 16.1,22.1 21.1,33.4 l -0.2,0.3 c -6.9,15.4 -17.5,30.4 -30.6,43.5 -19.2,19.2 -41.9,32.5 -64,37.5 -16.5,3.7 -31,2.4 -42,-3.7 l -6.6,5.6 c 8.6,5.5 19.2,8.3 31.1,8.3 6.1,0 12.6,-0.7 19.4,-2.3 23.5,-5.3 47.7,-19.4 67.9,-39.7 11.9,-11.9 21.8,-25.4 29,-39.3 8.1,24.2 6.2,46.9 -7.6,60.7 -10.5,10.5 -26.8,14.4 -45.8,11.3 -3.6,2.2 -7.2,4.2 -10.8,6 8,2.1 15.7,3.2 23,3.2 15.9,0 29.6,-5 39.3,-14.7 25.3,-25.3 16.8,-75.6 -18,-116.4 z"
   id="path1335" />
	<path
   class="st0"
   d="m -816.8,-2783.7 c 4.6,8.5 6.4,19 5.4,30.8 2.4,3.8 4.6,7.6 6.5,11.4 4,-19.2 1.8,-36.1 -6.4,-48.9 z"
   id="path1337" />
	<path
   class="st0"
   d="m -1021.8,-2590.2 h -41.6 v 56.7 h 9.7 v -19.7 h 0.7 l 31.1,-0.1 c 3,0 5.5,-1.1 7.6,-3.2 2.1,-2.1 3.2,-4.6 3.2,-7.5 v -15.5 c 0,-2.9 -1.1,-5.5 -3.2,-7.5 -1.9,-2.1 -4.5,-3.2 -7.5,-3.2 z m 1,26.3 c 0,0.6 -0.4,1 -1,1 h -30.8 c -0.6,0 -1,-0.4 -1,-1 v -15.5 c 0,-0.6 0.4,-1 1,-1 h 30.8 c 0.6,0 1,0.4 1,1 z"
   id="path1339" />
	<path
   class="st0"
   d="m -961.1,-2544.1 c 0,0.7 -0.5,1 -0.9,1 h -31 c -0.6,0 -1,-0.4 -1,-1 v -46.1 h -9.7 v 46.1 c 0,3 1,5.5 3.1,7.6 2.1,2.1 4.6,3.1 7.6,3.1 h 30.9 c 2.9,0 5.5,-1.1 7.5,-3.1 2.1,-2.1 3.2,-4.6 3.2,-7.6 v -46.1 h -9.8 v 46.1 z"
   id="path1341" />
	<polygon
   class="st0"
   points="-931.9,-2590.3 -941.6,-2590.3 -941.6,-2533.4 -895.5,-2533.4 -895.5,-2543.1 -931.9,-2543.1 "
   id="polygon1343" />
	<path
   class="st0"
   d="m -849.2,-2590.2 h -30.9 c -3,0 -5.5,1.1 -7.6,3.1 -2.1,2.1 -3.1,4.6 -3.1,7.6 v 11.9 c 0,3 1,5.5 3.1,7.6 2.1,2.1 4.6,3.1 7.6,3.1 h 30.9 c 0.4,0 0.9,0.3 0.9,1 v 11.9 c 0,0.7 -0.5,1 -0.9,1 h -30.9 c -0.6,0 -1,-0.4 -1,-1 v -4 h -9.7 v 4 c 0,3 1,5.5 3.1,7.6 2.1,2.1 4.6,3.1 7.6,3.1 h 30.9 c 2.9,0 5.5,-1.1 7.5,-3.1 2.1,-2.1 3.2,-4.6 3.2,-7.6 v -11.9 c 0,-3 -1.1,-5.5 -3.2,-7.6 -2.1,-2.1 -4.6,-3.1 -7.5,-3.1 h -30.9 c -0.6,0 -1,-0.4 -1,-1 v -11.9 c 0,-0.6 0.4,-1 1,-1 h 30.9 c 0.4,0 0.9,0.3 0.9,1 v 4 h 9.8 v -4 c 0,-3 -1.1,-5.5 -3.2,-7.6 -2.1,-2.1 -4.6,-3.1 -7.5,-3.1 z"
   id="path1345" />
	<path
   class="st0"
   d="m -787.4,-2590.2 h -30.8 c -3,0 -5.5,1.1 -7.6,3.1 -2.1,2.1 -3.1,4.6 -3.1,7.6 v 46.1 h 9.7 v -19.4 h 32.8 v 19.4 h 9.8 v -46.1 c 0,-3 -1.1,-5.5 -3.2,-7.6 -2,-2.1 -4.6,-3.1 -7.6,-3.1 z m 1,27.7 h -32.8 v -17 c 0,-0.6 0.4,-1 1,-1 h 30.8 c 0.6,0 1,0.4 1,1 z"
   id="path1347" />
	<path
   class="st0"
   d="m -718.4,-2556.4 c 2.1,-2.1 3.2,-4.6 3.2,-7.5 v -15.5 c 0,-2.9 -1.1,-5.5 -3.2,-7.5 -2.1,-2.1 -4.7,-3.2 -7.6,-3.2 h -41.5 v 56.7 h 9.7 v -19.8 h 15 l 0.1,0.2 16.5,19.6 h 10.9 v -2.1 l -14.8,-17.6 h 4 c 3,-0.1 5.6,-1.2 7.7,-3.3 z m -38.5,-6.5 c -0.6,0 -1,-0.4 -1,-1 v -15.5 c 0,-0.6 0.4,-1 1,-1 h 30.8 c 0.6,0 1,0.4 1,1 v 15.5 c 0,0.6 -0.4,1 -1,1 z"
   id="path1349" />
</g>
<g
   id="g1365"
   transform="translate(5.7000488,-4.8065186e-5)">
	<path
   class="st1"
   d="m 173.1,-253.5 h -41.6 v 56.7 h 9.7 v -19.7 h 0.7 l 31.1,-0.1 c 3,0 5.5,-1.1 7.6,-3.2 2.1,-2.1 3.2,-4.6 3.2,-7.5 v -15.5 c 0,-2.9 -1.1,-5.5 -3.2,-7.5 -1.9,-2.1 -4.5,-3.2 -7.5,-3.2 z m 1,26.3 c 0,0.6 -0.4,1 -1,1 h -30.8 c -0.6,0 -1,-0.4 -1,-1 v -15.5 c 0,-0.6 0.4,-1 1,-1 h 30.8 c 0.6,0 1,0.4 1,1 z"
   id="path1353" />
	<path
   class="st1"
   d="m 233.7,-207.4 c 0,0.7 -0.5,1 -0.9,1 h -30.9 c -0.6,0 -1,-0.4 -1,-1 v -46.1 h -9.7 v 46.1 c 0,3 1,5.5 3.1,7.6 2.1,2.1 4.6,3.1 7.6,3.1 h 30.9 c 2.9,0 5.5,-1.1 7.5,-3.1 2.1,-2.1 3.2,-4.6 3.2,-7.6 v -46.1 h -9.8 z"
   id="path1355" />
	<polygon
   class="st1"
   points="263,-253.6 253.3,-253.6 253.3,-196.7 299.4,-196.7 299.4,-206.5 263,-206.5 "
   id="polygon1357" />
	<path
   class="st1"
   d="m 345.7,-253.6 h -30.9 c -3,0 -5.5,1.1 -7.6,3.1 -2.1,2.1 -3.1,4.6 -3.1,7.6 v 11.9 c 0,3 1,5.5 3.1,7.6 2.1,2.1 4.6,3.1 7.6,3.1 h 30.9 c 0.4,0 0.9,0.3 0.9,1 v 11.9 c 0,0.7 -0.5,1 -0.9,1 h -30.9 c -0.6,0 -1,-0.4 -1,-1 v -4 H 304 v 4 c 0,3 1,5.5 3.1,7.6 2.1,2.1 4.6,3.1 7.6,3.1 h 30.9 c 2.9,0 5.5,-1.1 7.5,-3.1 2.1,-2.1 3.2,-4.6 3.2,-7.6 v -11.9 c 0,-3 -1.1,-5.5 -3.2,-7.6 -2.1,-2.1 -4.6,-3.1 -7.5,-3.1 h -30.9 c -0.6,0 -1,-0.4 -1,-1 v -11.9 c 0,-0.6 0.4,-1 1,-1 h 30.9 c 0.4,0 0.9,0.3 0.9,1 v 4 h 9.8 v -4 c 0,-3 -1.1,-5.5 -3.2,-7.6 -2,-2 -4.5,-3.1 -7.4,-3.1 z"
   id="path1359" />
	<path
   class="st1"
   d="m 407.5,-253.6 h -30.8 c -3,0 -5.5,1.1 -7.6,3.1 -2.1,2.1 -3.1,4.6 -3.1,7.6 v 46.1 h 9.7 v -19.4 h 32.8 v 19.4 h 9.8 v -46.1 c 0,-3 -1.1,-5.5 -3.2,-7.6 -2.1,-2 -4.6,-3.1 -7.6,-3.1 z m 1,27.8 h -32.8 v -17 c 0,-0.6 0.4,-1 1,-1 h 30.8 c 0.6,0 1,0.4 1,1 z"
   id="path1361" />
	<path
   class="st1"
   d="m 476.5,-219.7 c 2.1,-2.1 3.2,-4.6 3.2,-7.5 v -15.5 c 0,-2.9 -1.1,-5.5 -3.2,-7.5 -2.1,-2.1 -4.7,-3.2 -7.6,-3.2 h -41.5 v 56.7 h 9.7 v -19.8 h 15 l 0.1,0.2 16.5,19.6 h 10.9 v -2.1 l -14.8,-17.6 h 4 c 3,-0.1 5.6,-1.2 7.7,-3.3 z m -38.5,-6.5 c -0.6,0 -1,-0.4 -1,-1 v -15.5 c 0,-0.6 0.4,-1 1,-1 h 30.8 c 0.6,0 1,0.4 1,1 v 15.5 c 0,0.6 -0.4,1 -1,1 z"
   id="path1363" />
</g>
<g
   id="g1397"
   transform="translate(5.7000488,-4.8065186e-5)">
	<path
   class="st1"
   d="m 36.1,-2745.8 c -13.4,0 -24.2,10.9 -24.2,24.2 0,13.3 10.9,24.2 24.2,24.2 13.3,0 24.2,-10.9 24.2,-24.2 0,-13.3 -10.8,-24.2 -24.2,-24.2 z"
   id="path1367" />
	<path
   class="st1"
   d="m 6.3,-2688.3 c 0.8,0.3 1.6,0.5 2.5,0.5 1.6,0 3.3,-0.6 4.5,-1.9 2.5,-2.5 2.5,-6.6 0,-9.1 -1.3,-1.3 -2.9,-1.9 -4.6,-1.9 -1.7,0 -3.3,0.6 -4.6,1.9 -1.9,1.9 -2.4,4.7 -1.4,7 l -13,5.1 -53.9,64.2 1.1,1.1 64.2,-53.9 z"
   id="path1369" />
	<path
   class="st1"
   d="m -3.5,-2662.8 c 5.6,4.8 11.4,9.1 17.4,13 2.2,-0.8 7,-2.8 9.1,-3.9 -7.5,-4.3 -13.3,-8.6 -20.2,-14.4 z"
   id="path1371" />
	<path
   class="st1"
   d="m 70.9,-2767.8 -5.1,13 c -0.8,-0.3 -1.6,-0.5 -2.5,-0.5 -1.6,0 -3.3,0.6 -4.5,1.9 -2.5,2.5 -2.5,6.6 0,9.1 1.3,1.3 2.9,1.9 4.6,1.9 1.6,0 3.3,-0.6 4.6,-1.9 1.9,-1.9 2.4,-4.7 1.4,-7 l 13,-5.1 53.9,-64.2 -1.1,-1.1 z"
   id="path1373" />
	<path
   class="st1"
   d="m 62.6,-2764.4 c -7.7,-4.8 -16.8,-7.6 -26.5,-7.6 -27.8,0 -50.5,22.6 -50.5,50.5 0,9.7 2.8,18.8 7.6,26.5 l 2.7,-1.1 c 0.4,-2.7 1.6,-5.3 3.7,-7.3 0.4,-0.4 0.9,-0.7 1.3,-1.1 -2.5,-5.2 -4,-10.9 -4,-17.1 0,-21.6 17.5,-39.1 39.1,-39.1 6.1,0 11.9,1.5 17.1,4 0.3,-0.5 0.7,-0.9 1.1,-1.3 2,-2 4.5,-3.3 7.3,-3.7 z"
   id="path1375" />
	<path
   class="st1"
   d="m 36.1,-2682.5 c -6.1,0 -11.9,-1.5 -17.1,-4 -0.3,0.5 -0.7,0.9 -1.1,1.3 -2,2 -4.5,3.3 -7.3,3.7 l -1.1,2.7 c 7.7,4.8 16.8,7.6 26.5,7.6 27.8,0 50.5,-22.6 50.5,-50.5 0,-9.7 -2.8,-18.8 -7.6,-26.5 l -2.7,1.1 c -0.4,2.7 -1.6,5.3 -3.7,7.3 -0.4,0.4 -0.9,0.7 -1.3,1.1 2.5,5.2 4,10.9 4,17.1 0,21.6 -17.5,39.1 -39.1,39.1 z"
   id="path1377" />
	<path
   class="st1"
   d="m -47.3,-2721.5 c -10.5,25.7 -11,51 0.1,68.6 l 5.5,-6.6 c -7.5,-13.7 -7.5,-32.2 -0.9,-51.8 5.2,10.1 11.9,20 19.8,29.3 l 5.3,-6.3 c -8.9,-10.6 -16,-21.9 -21.1,-33.3 6.7,-15 17,-30.2 30.7,-43.9 13.4,-13.4 28.5,-23.9 43.8,-30.7 11.3,5 22.6,12.1 33.4,21.1 l 6.3,-5.3 c -9.4,-8 -19.4,-14.6 -29.4,-19.8 3.3,-1.1 6.6,-2 9.9,-2.8 16.5,-3.7 31,-2.4 42,3.7 l 6.6,-5.6 c -13.1,-8.3 -30.6,-10.5 -50.4,-6.1 -6.1,1.4 -12.3,3.4 -18.5,5.9 -29.9,-12.2 -59.2,-10.8 -76.6,6.6 -13.5,13.5 -17.9,34.3 -12.5,58.5 1.5,6.2 3.5,12.4 6,18.5 z m 12.3,-71.1 c 13.8,-13.8 36.5,-15.8 60.7,-7.6 -13.8,7.1 -27.3,17 -39.3,29 -12.3,12.3 -22,25.7 -28.9,39.3 -1.1,-3.3 -2.1,-6.5 -2.8,-9.8 -4.8,-21.4 -1.1,-39.5 10.3,-50.9 z"
   id="path1379" />
	<path
   class="st1"
   d="m 89.6,-2754.9 c 9,10.8 16.1,22.1 21.1,33.4 l -0.2,0.3 c -6.9,15.4 -17.5,30.4 -30.6,43.5 -19.2,19.2 -41.9,32.5 -64,37.5 -16.5,3.7 -31,2.4 -42,-3.7 l -6.6,5.6 c 8.6,5.5 19.2,8.3 31.1,8.3 6.1,0 12.6,-0.7 19.4,-2.3 23.5,-5.3 47.7,-19.4 67.9,-39.7 11.9,-11.9 21.8,-25.4 29,-39.3 8.1,24.2 6.2,46.9 -7.6,60.7 -10.5,10.5 -26.8,14.4 -45.8,11.3 -3.6,2.2 -7.2,4.2 -10.8,6 8,2.1 15.7,3.2 23,3.2 15.9,0 29.6,-5 39.3,-14.7 25.3,-25.3 16.8,-75.6 -18,-116.4 z"
   id="path1381" />
	<path
   class="st1"
   d="m 113.8,-2783.7 c 4.6,8.5 6.4,19 5.4,30.8 2.4,3.8 4.6,7.6 6.5,11.4 4,-19.2 1.8,-36.1 -6.4,-48.9 z"
   id="path1383" />
	<path
   class="st1"
   d="m -91.2,-2590.2 h -41.6 v 56.7 h 9.7 v -19.7 h 0.7 l 31.1,-0.1 c 3,0 5.5,-1.1 7.6,-3.2 2.1,-2.1 3.2,-4.6 3.2,-7.5 v -15.5 c 0,-2.9 -1.1,-5.5 -3.2,-7.5 -2,-2.1 -4.5,-3.2 -7.5,-3.2 z m 1,26.3 c 0,0.6 -0.4,1 -1,1 H -122 c -0.6,0 -1,-0.4 -1,-1 v -15.5 c 0,-0.6 0.4,-1 1,-1 h 30.8 c 0.6,0 1,0.4 1,1 z"
   id="path1385" />
	<path
   class="st1"
   d="m -30.6,-2544.1 c 0,0.7 -0.5,1 -0.9,1 h -30.9 c -0.6,0 -1,-0.4 -1,-1 v -46.1 h -9.7 v 46.1 c 0,3 1,5.5 3.1,7.6 2.1,2.1 4.6,3.1 7.6,3.1 h 30.9 c 2.9,0 5.5,-1.1 7.5,-3.1 2.1,-2.1 3.2,-4.6 3.2,-7.6 v -46.1 h -9.8 z"
   id="path1387" />
	<polygon
   class="st1"
   points="-1.3,-2590.3 -11,-2590.3 -11,-2533.4 35.1,-2533.4 35.1,-2543.1 -1.3,-2543.1 "
   id="polygon1389" />
	<path
   class="st1"
   d="m 81.4,-2590.2 h -31 c -3,0 -5.5,1.1 -7.6,3.1 -2.1,2.1 -3.1,4.6 -3.1,7.6 v 11.9 c 0,3 1,5.5 3.1,7.6 2.1,2.1 4.6,3.1 7.6,3.1 h 30.9 c 0.4,0 0.9,0.3 0.9,1 v 11.9 c 0,0.7 -0.5,1 -0.9,1 H 50.4 c -0.6,0 -1,-0.4 -1,-1 v -4 h -9.7 v 4 c 0,3 1,5.5 3.1,7.6 2.1,2.1 4.6,3.1 7.6,3.1 h 30.9 c 2.9,0 5.5,-1.1 7.5,-3.1 2.1,-2.1 3.2,-4.6 3.2,-7.6 v -11.9 c 0,-3 -1.1,-5.5 -3.2,-7.6 -2.1,-2.1 -4.6,-3.1 -7.5,-3.1 H 50.4 c -0.6,0 -1,-0.4 -1,-1 v -11.9 c 0,-0.6 0.4,-1 1,-1 h 30.9 c 0.4,0 0.9,0.3 0.9,1 v 4 H 92 v -4 c 0,-3 -1.1,-5.5 -3.2,-7.6 -2,-2.1 -4.5,-3.1 -7.4,-3.1 z"
   id="path1391" />
	<path
   class="st1"
   d="m 143.2,-2590.2 h -30.8 c -3,0 -5.5,1.1 -7.6,3.1 -2.1,2.1 -3.1,4.6 -3.1,7.6 v 46.1 h 9.7 v -19.4 h 32.8 v 19.4 h 9.8 v -46.1 c 0,-3 -1.1,-5.5 -3.2,-7.6 -2.1,-2.1 -4.6,-3.1 -7.6,-3.1 z m 1,27.7 h -32.8 v -17 c 0,-0.6 0.4,-1 1,-1 h 30.8 c 0.6,0 1,0.4 1,1 z"
   id="path1393" />
	<path
   class="st1"
   d="m 212.2,-2556.4 c 2.1,-2.1 3.2,-4.6 3.2,-7.5 v -15.5 c 0,-2.9 -1.1,-5.5 -3.2,-7.5 -2.1,-2.1 -4.7,-3.2 -7.6,-3.2 H 163 v 56.7 h 9.7 v -19.8 h 15 l 0.1,0.2 16.5,19.6 h 10.9 v -2.1 l -14.8,-17.6 h 4 c 3.1,-0.1 5.7,-1.2 7.8,-3.3 z m -38.5,-6.5 c -0.6,0 -1,-0.4 -1,-1 v -15.5 c 0,-0.6 0.4,-1 1,-1 h 30.8 c 0.6,0 1,0.4 1,1 v 15.5 c 0,0.6 -0.4,1 -1,1 z"
   id="path1395" />
</g>
<g
   id="g1417"
   transform="translate(5.7000488,-4.8065186e-5)">
	<path
   class="st1"
   d="m -142.3,-249.4 c -13.4,0 -24.2,10.9 -24.2,24.2 0,13.4 10.9,24.2 24.2,24.2 13.3,0 24.2,-10.9 24.2,-24.2 0.1,-13.4 -10.8,-24.2 -24.2,-24.2 z"
   id="path1399" />
	<path
   class="st1"
   d="m -172,-191.9 c 0.8,0.3 1.6,0.5 2.5,0.5 1.6,0 3.3,-0.6 4.5,-1.9 2.5,-2.5 2.5,-6.6 0,-9.1 -1.3,-1.3 -2.9,-1.9 -4.6,-1.9 -1.7,0 -3.3,0.6 -4.6,1.9 -1.9,1.9 -2.4,4.7 -1.4,7 l -13,5.1 -53.9,64.2 1.1,1.1 64.2,-53.9 z"
   id="path1401" />
	<path
   class="st1"
   d="m -181.9,-166.4 c 5.6,4.8 11.4,9.1 17.4,13 2.2,-0.8 7,-2.8 9.1,-3.9 -7.5,-4.3 -13.3,-8.6 -20.2,-14.4 z"
   id="path1403" />
	<path
   class="st1"
   d="m -107.4,-271.4 -5.1,13 c -0.8,-0.3 -1.6,-0.5 -2.5,-0.5 -1.6,0 -3.3,0.6 -4.5,1.9 -2.5,2.5 -2.5,6.6 0,9.1 1.3,1.3 2.9,1.9 4.6,1.9 1.6,0 3.3,-0.6 4.6,-1.9 1.9,-1.9 2.4,-4.7 1.4,-7 l 13,-5.1 53.9,-64.2 -1.1,-1.1 z"
   id="path1405" />
	<path
   class="st1"
   d="m -115.7,-268.1 c -7.7,-4.8 -16.8,-7.6 -26.5,-7.6 -27.8,0 -50.5,22.6 -50.5,50.5 0,9.7 2.8,18.8 7.6,26.5 l 2.7,-1.1 c 0.4,-2.7 1.6,-5.3 3.7,-7.3 0.4,-0.4 0.9,-0.7 1.3,-1.1 -2.5,-5.2 -4,-10.9 -4,-17.1 0,-21.6 17.5,-39.1 39.1,-39.1 6.1,0 11.9,1.5 17.1,4 0.3,-0.5 0.7,-0.9 1.1,-1.3 2,-2 4.5,-3.3 7.3,-3.7 z"
   id="path1407" />
	<path
   class="st1"
   d="m -142.3,-186.1 c -6.1,0 -11.9,-1.5 -17.1,-4 -0.3,0.5 -0.7,0.9 -1.1,1.3 -2,2 -4.5,3.3 -7.3,3.7 l -1.1,2.7 c 7.7,4.8 16.8,7.6 26.5,7.6 27.8,0 50.5,-22.6 50.5,-50.5 0,-9.7 -2.8,-18.8 -7.6,-26.5 l -2.7,1.1 c -0.4,2.7 -1.6,5.3 -3.7,7.3 -0.4,0.4 -0.9,0.7 -1.3,1.1 2.5,5.2 4,10.9 4,17.1 0,21.6 -17.5,39.1 -39.1,39.1 z"
   id="path1409" />
	<path
   class="st1"
   d="m -225.6,-225.1 c -10.5,25.7 -11,51 0.1,68.6 l 5.5,-6.6 c -7.5,-13.7 -7.5,-32.2 -0.9,-51.8 5.2,10.1 11.9,20 19.8,29.3 l 5.3,-6.3 c -8.9,-10.6 -16,-21.9 -21.1,-33.3 6.7,-15 17,-30.2 30.7,-43.9 13.4,-13.4 28.5,-23.9 43.8,-30.7 11.3,5 22.6,12.1 33.4,21.1 l 6.3,-5.3 c -9.4,-8 -19.4,-14.6 -29.4,-19.8 3.3,-1.1 6.6,-2 9.9,-2.8 16.5,-3.7 31,-2.4 42,3.7 l 6.6,-5.6 c -13.1,-8.3 -30.6,-10.5 -50.4,-6.1 -6.1,1.4 -12.3,3.4 -18.5,5.9 -29.9,-12.2 -59.2,-10.8 -76.6,6.6 -13.5,13.5 -17.9,34.3 -12.5,58.5 1.4,6.2 3.5,12.4 6,18.5 z m 12.3,-71.1 c 13.8,-13.8 36.5,-15.8 60.7,-7.6 -13.8,7.1 -27.3,17 -39.3,29 -12.3,12.3 -22,25.7 -28.9,39.3 -1.1,-3.3 -2.1,-6.5 -2.8,-9.8 -4.8,-21.4 -1.2,-39.5 10.3,-50.9 z"
   id="path1411" />
	<path
   class="st1"
   d="m -88.7,-258.5 c 9,10.8 16.1,22.1 21.1,33.4 l -0.2,0.3 c -6.9,15.4 -17.5,30.4 -30.6,43.5 -19.2,19.2 -41.9,32.5 -64,37.5 -16.5,3.7 -31,2.4 -42,-3.7 l -6.6,5.6 c 8.6,5.5 19.2,8.3 31.1,8.3 6.1,0 12.6,-0.7 19.4,-2.3 23.5,-5.3 47.7,-19.4 67.9,-39.7 11.9,-11.9 21.8,-25.4 29,-39.3 8.1,24.2 6.2,46.9 -7.6,60.7 -10.5,10.5 -26.8,14.4 -45.8,11.3 -3.6,2.2 -7.2,4.2 -10.8,6 8,2.1 15.7,3.2 23,3.2 15.9,0 29.6,-5 39.3,-14.7 25.3,-25.3 16.8,-75.6 -18,-116.4 z"
   id="path1413" />
	<path
   class="st1"
   d="m -64.6,-287.3 c 4.6,8.5 6.4,19 5.4,30.8 2.4,3.8 4.6,7.6 6.5,11.4 4,-19.2 1.8,-36.1 -6.4,-48.9 z"
   id="path1415" />
</g>
<g
   id="g1437"
   transform="translate(5.7000488,-4.8065186e-5)">
	<path
   class="st0"
   d="m -434.1,-249.4 c -13.4,0 -24.2,10.9 -24.2,24.2 0,13.4 10.9,24.2 24.2,24.2 13.3,0 24.2,-10.9 24.2,-24.2 0.1,-13.4 -10.8,-24.2 -24.2,-24.2 z"
   id="path1419" />
	<path
   class="st0"
   d="m -463.8,-191.9 c 0.8,0.3 1.6,0.5 2.5,0.5 1.6,0 3.3,-0.6 4.5,-1.9 2.5,-2.5 2.5,-6.6 0,-9.1 -1.3,-1.3 -2.9,-1.9 -4.6,-1.9 -1.6,0 -3.3,0.6 -4.6,1.9 -1.9,1.9 -2.4,4.7 -1.4,7 l -13,5.1 -53.9,64.2 1.1,1.1 64.2,-53.9 z"
   id="path1421" />
	<path
   class="st0"
   d="m -473.7,-166.4 c 5.6,4.8 11.4,9.1 17.4,13 2.2,-0.8 7,-2.8 9.1,-3.9 -7.5,-4.3 -13.3,-8.6 -20.2,-14.4 z"
   id="path1423" />
	<path
   class="st0"
   d="m -399.3,-271.4 -5.1,13 c -0.8,-0.3 -1.6,-0.5 -2.5,-0.5 -1.6,0 -3.3,0.6 -4.5,1.9 -2.5,2.5 -2.5,6.6 0,9.1 1.3,1.3 2.9,1.9 4.6,1.9 1.6,0 3.3,-0.6 4.6,-1.9 1.9,-1.9 2.4,-4.7 1.4,-7 l 13,-5.1 53.9,-64.2 -1.1,-1.1 z"
   id="path1425" />
	<path
   class="st0"
   d="m -407.6,-268.1 c -7.7,-4.8 -16.8,-7.6 -26.5,-7.6 -27.8,0 -50.5,22.6 -50.5,50.5 0,9.7 2.8,18.8 7.6,26.5 l 2.7,-1.1 c 0.4,-2.7 1.6,-5.3 3.7,-7.3 0.4,-0.4 0.9,-0.7 1.3,-1.1 -2.5,-5.2 -4,-10.9 -4,-17.1 0,-21.6 17.5,-39.1 39.1,-39.1 6.1,0 11.9,1.5 17.1,4 0.3,-0.5 0.7,-0.9 1.1,-1.3 2,-2 4.5,-3.3 7.3,-3.7 z"
   id="path1427" />
	<path
   class="st0"
   d="m -434.1,-186.1 c -6.1,0 -11.9,-1.5 -17.1,-4 -0.3,0.5 -0.7,0.9 -1.1,1.3 -2,2 -4.5,3.3 -7.3,3.7 l -1.1,2.7 c 7.7,4.8 16.8,7.6 26.5,7.6 27.8,0 50.5,-22.6 50.5,-50.5 0,-9.7 -2.8,-18.8 -7.6,-26.5 l -2.7,1.1 c -0.4,2.7 -1.6,5.3 -3.7,7.3 -0.4,0.4 -0.9,0.7 -1.3,1.1 2.5,5.2 4,10.9 4,17.1 0,21.6 -17.5,39.1 -39.1,39.1 z"
   id="path1429" />
	<path
   class="st0"
   d="m -517.4,-225.1 c -10.5,25.7 -11,51 0.1,68.6 l 5.5,-6.6 c -7.5,-13.7 -7.5,-32.2 -0.9,-51.8 5.2,10.1 11.9,20 19.8,29.3 l 5.3,-6.3 c -8.9,-10.6 -16,-21.9 -21.1,-33.3 6.7,-15 17,-30.2 30.7,-43.9 13.4,-13.4 28.5,-23.9 43.8,-30.7 11.3,5 22.6,12.1 33.4,21.1 l 6.3,-5.3 c -9.4,-8 -19.4,-14.6 -29.4,-19.8 3.3,-1.1 6.6,-2 9.9,-2.8 16.5,-3.7 31,-2.4 42,3.7 l 6.6,-5.6 c -13.1,-8.3 -30.6,-10.5 -50.4,-6.1 -6.1,1.4 -12.3,3.4 -18.5,5.9 -29.9,-12.2 -59.2,-10.8 -76.6,6.6 -13.5,13.5 -17.9,34.3 -12.5,58.5 1.4,6.2 3.4,12.4 6,18.5 z m 12.3,-71.1 c 13.8,-13.8 36.5,-15.8 60.7,-7.6 -13.8,7.1 -27.3,17 -39.3,29 -12.3,12.3 -22,25.7 -28.9,39.3 -1.1,-3.3 -2.1,-6.5 -2.8,-9.8 -4.9,-21.4 -1.2,-39.5 10.3,-50.9 z"
   id="path1431" />
	<path
   class="st0"
   d="m -380.6,-258.5 c 9,10.8 16.1,22.1 21.1,33.4 l -0.2,0.3 c -6.9,15.4 -17.5,30.4 -30.6,43.5 -19.2,19.2 -41.9,32.5 -64,37.5 -16.5,3.7 -31,2.4 -42,-3.7 l -6.6,5.6 c 8.6,5.5 19.2,8.3 31.1,8.3 6.1,0 12.6,-0.7 19.4,-2.3 23.5,-5.3 47.7,-19.4 67.9,-39.7 11.9,-11.9 21.8,-25.4 29,-39.3 8.1,24.2 6.2,46.9 -7.6,60.7 -10.5,10.5 -26.8,14.4 -45.8,11.3 -3.6,2.2 -7.2,4.2 -10.8,6 8,2.1 15.7,3.2 23,3.2 15.9,0 29.6,-5 39.3,-14.7 25.3,-25.3 16.8,-75.6 -18,-116.4 z"
   id="path1433" />
	<path
   class="st0"
   d="m -356.4,-287.3 c 4.6,8.5 6.4,19 5.4,30.8 2.4,3.8 4.6,7.6 6.5,11.4 4,-19.2 1.8,-36.1 -6.4,-48.9 z"
   id="path1435" />
</g>
<rect
   x="-433.79993"
   y="-1997.3"
   class="st0"
   width="985"
   height="1080"
   id="rect1439" />
<circle
   class="st0"
   cx="-878.99994"
   cy="-1457.3"
   r="195.5"
   id="circle1441" />
<g
   id="g1467"
   transform="translate(5.7000488,-4.8065186e-5)">
	<g
   id="g1445">
		<circle
   class="st1"
   cx="-884.70001"
   cy="-1463.5"
   r="25.299999"
   id="circle1443" />
	</g>
	<path
   class="st1"
   d="m -913.2,-1441.7 c -1.7,0 -3.4,0.7 -4.8,2 -2,2 -2.5,4.9 -1.5,7.3 l -13.6,5.3 -56.3,67 1.2,1.2 67,-56.3 5.3,-13.6 c 0.8,0.3 1.7,0.5 2.6,0.5 1.7,0 3.4,-0.7 4.7,-2 2.6,-2.6 2.6,-6.9 0,-9.5 -1.2,-1.3 -2.9,-1.9 -4.6,-1.9 z"
   id="path1447" />
	<path
   class="st1"
   d="m -924,-1367.9 c 6.4,0 13.2,-0.8 20.2,-2.4 24.6,-5.5 49.8,-20.2 70.9,-41.4 14.2,-14.2 25.7,-30.5 33.3,-47.2 l -6.6,-6.2 -0.5,1.3 -0.3,0.7 c -7.2,16 -18.2,31.8 -31.9,45.4 -20.1,20.1 -43.8,34 -66.8,39.1 -17.2,3.9 -32.4,2.5 -43.9,-3.9 l -6.9,5.8 c 9.1,5.9 20.1,8.8 32.5,8.8 z"
   id="path1449" />
	<path
   class="st1"
   d="m -898.4,-1392.7 c -7.8,-4.5 -13.9,-9 -21.1,-15 l -6.6,5.5 c 5.8,5 11.9,9.5 18.2,13.6 2.4,-0.8 7.4,-2.8 9.5,-4.1 z"
   id="path1451" />
	<path
   class="st1"
   d="m -848.3,-1511.8 -5.3,13.6 c -0.8,-0.3 -1.7,-0.5 -2.6,-0.5 -1.7,0 -3.4,0.7 -4.7,2 -2.6,2.6 -2.6,6.9 0,9.5 1.3,1.3 3,2 4.8,2 1.7,0 3.4,-0.7 4.8,-2 2,-2 2.5,-4.9 1.5,-7.3 l 13.6,-5.3 56.3,-67 -1.2,-1.2 z"
   id="path1453" />
	<path
   class="st1"
   d="m -922.8,-1444.5 c 0.4,-0.4 0.9,-0.8 1.4,-1.1 -2.6,-5.4 -4.2,-11.4 -4.2,-17.8 0,-22.5 18.3,-40.8 40.8,-40.8 6.4,0 12.4,1.5 17.8,4.2 0.4,-0.5 0.7,-1 1.1,-1.4 2.1,-2.1 4.7,-3.4 7.6,-3.8 l 1.1,-2.9 c -8.1,-5 -17.5,-7.9 -27.7,-7.9 -29.1,0 -52.7,23.6 -52.7,52.7 0,10.2 2.9,19.6 8,27.7 l 2.9,-1.1 c 0.5,-3 1.8,-5.7 3.9,-7.8 z"
   id="path1455" />
	<path
   class="st1"
   d="m -846.6,-1482.5 c -0.4,0.4 -0.9,0.8 -1.4,1.1 2.6,5.4 4.2,11.4 4.2,17.8 0,22.5 -18.3,40.8 -40.8,40.8 -6.4,0 -12.4,-1.5 -17.8,-4.2 -0.4,0.5 -0.7,1 -1.1,1.4 -2.1,2.1 -4.7,3.4 -7.6,3.8 l -1.1,2.9 c 8.1,5 17.5,7.9 27.7,7.9 29.1,0 52.7,-23.6 52.7,-52.7 0,-10.2 -2.9,-19.6 -7.9,-27.7 l -2.9,1.1 c -0.6,3 -1.9,5.7 -4,7.8 z"
   id="path1457" />
	<path
   class="st1"
   d="m -964.9,-1543.7 c -14.1,14.1 -18.7,35.8 -13.1,61.1 4.7,20.7 15.8,41.8 31.8,60.5 l 5.5,-6.6 c -14.6,-17.5 -24.8,-36.9 -29.1,-55.8 -5,-22.3 -1.2,-41.2 10.8,-53.2 23.1,-23.1 69.9,-14.5 109,18.3 l 6.6,-5.5 c -42.6,-36.3 -95.1,-45.2 -121.5,-18.8 z"
   id="path1459" />
	<path
   class="st1"
   d="m -823.3,-1504.9 -5.5,6.6 c 32.8,39.1 41.4,86 18.3,109 -10.9,10.9 -28,15 -47.8,11.8 -3.7,2.3 -7.5,4.4 -11.3,6.3 8.4,2.2 16.4,3.4 24,3.4 16.6,0 30.9,-5.2 41.1,-15.4 26.4,-26.5 17.5,-79 -18.8,-121.7 z"
   id="path1461" />
	<path
   class="st1"
   d="m -865.6,-1556.7 c -24.6,5.5 -49.8,20.2 -70.9,41.4 -40.2,40.2 -54.4,92.9 -35.1,123.6 l 5.8,-6.9 c -15.2,-27.6 -1.1,-74.3 35.3,-110.7 20.1,-20.1 43.8,-34 66.8,-39.1 17.2,-3.9 32.4,-2.5 43.9,3.8 l 6.9,-5.8 c -13.7,-8.7 -32,-11 -52.7,-6.3 z"
   id="path1463" />
	<path
   class="st1"
   d="m -797.8,-1535.3 -5.8,6.9 c 4.8,8.8 6.7,19.8 5.6,32.2 2.5,4 4.8,7.9 6.8,11.9 4.2,-20 1.9,-37.7 -6.6,-51 z"
   id="path1465" />
</g>
<circle
   class="st2"
   cx="45.699951"
   cy="-1455.8"
   r="195.5"
   id="circle1469" />
<g
   id="g1495"
   transform="translate(5.7000488,-4.8065186e-5)">
	<g
   id="g1473">
		<circle
   class="st1"
   cx="40"
   cy="-1462.1"
   r="25.299999"
   id="circle1471" />
	</g>
	<path
   class="st1"
   d="m 11.4,-1440.3 c -1.7,0 -3.4,0.7 -4.8,2 -2,2 -2.5,4.9 -1.5,7.3 l -13.6,5.3 -56.3,67 1.2,1.2 67,-56.3 5.3,-13.6 c 0.8,0.3 1.7,0.5 2.6,0.5 1.7,0 3.4,-0.7 4.7,-2 2.6,-2.6 2.6,-6.9 0,-9.5 -1.1,-1.2 -2.8,-1.9 -4.6,-1.9 z"
   id="path1475" />
	<path
   class="st1"
   d="m 0.6,-1366.5 c 6.4,0 13.2,-0.8 20.2,-2.4 24.6,-5.5 49.8,-20.2 70.9,-41.4 14.2,-14.2 25.7,-30.5 33.3,-47.2 l -6.6,-6.2 -0.5,1.3 -0.3,0.7 c -7.2,16 -18.2,31.8 -31.9,45.4 -20.1,20.1 -43.8,34 -66.8,39.1 -17.2,3.9 -32.4,2.5 -43.9,-3.9 l -6.9,5.8 c 9.1,5.9 20.1,8.8 32.5,8.8 z"
   id="path1477" />
	<path
   class="st1"
   d="m 26.3,-1391.2 c -7.8,-4.5 -13.9,-9 -21.1,-15 l -6.6,5.5 c 5.8,5 11.9,9.5 18.2,13.6 2.3,-0.8 7.3,-2.9 9.5,-4.1 z"
   id="path1479" />
	<path
   class="st1"
   d="m 76.3,-1510.3 -5.3,13.6 c -0.8,-0.3 -1.7,-0.5 -2.6,-0.5 -1.7,0 -3.4,0.7 -4.7,2 -2.6,2.6 -2.6,6.9 0,9.5 1.3,1.3 3,2 4.8,2 1.7,0 3.4,-0.7 4.8,-2 2,-2 2.5,-4.9 1.5,-7.3 l 13.6,-5.3 56.3,-67 -1.2,-1.2 z"
   id="path1481" />
	<path
   class="st1"
   d="m 1.9,-1443.1 c 0.4,-0.4 0.9,-0.8 1.4,-1.1 -2.6,-5.4 -4.2,-11.4 -4.2,-17.8 0,-22.5 18.3,-40.8 40.8,-40.8 6.4,0 12.4,1.5 17.8,4.2 0.4,-0.5 0.7,-1 1.1,-1.4 2.1,-2.1 4.7,-3.4 7.6,-3.8 l 1.1,-2.9 c -8.1,-5 -17.5,-7.9 -27.7,-7.9 -29.1,0 -52.7,23.6 -52.7,52.7 0,10.2 2.9,19.6 8,27.7 l 2.9,-1.1 c 0.5,-3 1.8,-5.7 3.9,-7.8 z"
   id="path1483" />
	<path
   class="st1"
   d="m 78,-1481 c -0.4,0.4 -0.9,0.8 -1.4,1.1 2.6,5.4 4.2,11.4 4.2,17.8 0,22.5 -18.3,40.8 -40.8,40.8 -6.4,0 -12.4,-1.5 -17.8,-4.2 -0.4,0.5 -0.7,1 -1.1,1.4 -2.1,2.1 -4.7,3.4 -7.6,3.8 l -1.1,2.9 c 8.1,5 17.5,7.9 27.7,7.9 29.1,0 52.7,-23.6 52.7,-52.7 0,-10.2 -2.9,-19.6 -7.9,-27.7 l -2.9,1.1 c -0.5,3 -1.8,5.7 -4,7.8 z"
   id="path1485" />
	<path
   class="st1"
   d="m -40.2,-1542.2 c -14.1,14.1 -18.7,35.8 -13.1,61.1 4.7,20.7 15.8,41.8 31.8,60.5 l 5.5,-6.6 c -14.6,-17.5 -24.8,-36.9 -29.1,-55.8 -5,-22.3 -1.2,-41.2 10.8,-53.2 23.1,-23.1 69.9,-14.5 109,18.3 l 6.6,-5.5 c -42.6,-36.4 -95.1,-45.2 -121.5,-18.8 z"
   id="path1487" />
	<path
   class="st1"
   d="m 101.4,-1503.5 -5.5,6.6 c 32.8,39.1 41.4,86 18.3,109 -10.9,10.9 -28,15 -47.8,11.8 -3.7,2.3 -7.5,4.4 -11.3,6.3 8.4,2.2 16.4,3.4 24,3.4 16.6,0 30.9,-5.2 41.1,-15.4 26.3,-26.5 17.5,-79 -18.8,-121.7 z"
   id="path1489" />
	<path
   class="st1"
   d="m 59.1,-1555.3 c -24.6,5.5 -49.8,20.2 -70.9,41.4 -40.2,40.2 -54.4,92.9 -35.1,123.6 l 5.8,-6.9 c -15.2,-27.6 -1.1,-74.3 35.3,-110.7 20.1,-20.1 43.8,-34 66.8,-39.1 17.2,-3.9 32.4,-2.5 43.9,3.8 l 6.9,-5.8 c -13.7,-8.7 -32,-10.9 -52.7,-6.3 z"
   id="path1491" />
	<path
   class="st1"
   d="m 126.9,-1533.8 -5.8,6.9 c 4.8,8.8 6.7,19.8 5.6,32.2 2.5,4 4.8,7.9 6.8,11.9 4.2,-20 1.9,-37.7 -6.6,-51 z"
   id="path1493" />
</g>
<g
   id="g1511"
   transform="translate(5.7000488,-4.8065186e-5)">
	<linearGradient
   id="SVGID_1_"
   gradientUnits="userSpaceOnUse"
   x1="1563.5149"
   y1="-2511.0737"
   x2="1705.5149"
   y2="-2737.0737">
		<stop
   offset="0"
   style="stop-color:#4B2278"
   id="stop1497" />
		<stop
   offset="1"
   style="stop-color:#006FDE"
   id="stop1499" />
	</linearGradient>
	<path
   class="st3"
   d="m 1619.9,-2544.4 c 3.2,3.9 4.9,9.1 3.9,14.6 -2.9,-11.4 -10,-18.6 -21.5,-21.5 4.7,-0.7 9.3,0.5 13,2.8 -1.1,-2 -2,-3.9 -2.8,-5.8 -7.8,-18.4 -3.8,-33.6 -0.6,-41.2 l -15.4,-6.4 c -7.9,18.9 -24.1,27.4 -38.7,31.1 4.2,1.7 7.8,4.8 9.8,9.3 -8.8,-7.8 -18.7,-9.8 -29.8,-5.8 4.2,-3.9 9.8,-5.4 15.1,-4.8 -4,-2.8 -8.8,-4.4 -14,-4.4 -13.6,0 -24.7,11 -24.7,24.7 0,13 10,23.6 22.7,24.6 0.6,0.1 1.3,0.1 1.9,0.1 0.9,0 1.8,-0.1 2.7,-0.1 2.9,5.7 7.9,10.1 13.9,12.2 -2.2,-3.6 -3.2,-7.9 -2.4,-12.5 2.9,11.4 10,18.6 21.5,21.5 -6.5,1 -12.8,-1.6 -16.9,-6.2 -0.2,1.1 -0.3,2.3 -0.3,3.5 0,12.9 10,23.5 22.6,24.6 0.7,0.1 1.4,0.1 2.1,0.1 10.4,0 19.3,-6.4 22.9,-15.6 4,2.8 8.9,4.5 14.2,4.5 13.6,0 24.7,-11 24.7,-24.7 0,-13.3 -10.6,-24.1 -23.9,-24.6 z m -49,21.4 c -10,-7.4 -10.4,-23 0,-30.3 -6,10.1 -6,20.1 0,30.3 z"
   id="path1502"
   style="fill:url(#SVGID_1_)" />
	
		<linearGradient
   id="SVGID_00000029741780006922614780000013942634059325334429_"
   gradientUnits="userSpaceOnUse"
   x1="1549.978"
   y1="-2519.5793"
   x2="1691.978"
   y2="-2745.5793">
		<stop
   offset="0"
   style="stop-color:#4B2278"
   id="stop1504" />
		<stop
   offset="1"
   style="stop-color:#006FDE"
   id="stop1506" />
	</linearGradient>
	<path
   style="fill:url(#SVGID_00000029741780006922614780000013942634059325334429_)"
   d="m 1662,-2728.6 c -1.3,-3.1 -4.8,-4.5 -7.9,-3.3 -20.1,8.3 -39.2,17.2 -51.1,34.6 -6.3,9.2 -10.2,20 -12.3,31.1 -13.6,6.6 -27.1,34 -27.1,34 0,0 8.1,2.5 15.6,4.6 4.1,1.1 8,2.1 10.5,2.4 0.5,4.1 1.2,8.1 2,11.7 0.4,1.9 1.8,3.5 3.6,4.3 l 21.5,8.9 c 1.5,0.6 3.2,0.6 4.6,0 0.3,-0.1 7.3,-4.8 10.6,-7.3 1,0.8 2.4,1.7 4,2.7 7.4,4.6 19.4,10.9 19.4,10.9 0,0 9.8,-28.9 4.9,-43.2 6.4,-9.4 11.3,-19.8 13.3,-30.7 3.9,-20.8 -3.6,-41.4 -11.6,-60.7 z m -26.2,63 c -6.3,0 -11.3,-5.1 -11.3,-11.3 0,-6.3 5.1,-11.3 11.3,-11.3 6.3,0 11.3,5.1 11.3,11.3 0,6.2 -5.1,11.3 -11.3,11.3 z"
   id="path1509" />
</g>
<g
   id="g1575"
   transform="translate(5.7000488,-4.8065186e-5)">
	<g
   id="g1573">
		<g
   id="g1527">
			
				<linearGradient
   id="SVGID_00000042008995394858433840000012408658266411114403_"
   gradientUnits="userSpaceOnUse"
   x1="1934.2068"
   y1="-2735.4465"
   x2="1935.8734"
   y2="-2708.4465">
				<stop
   offset="0"
   style="stop-color:#4B2278"
   id="stop1513" />
				<stop
   offset="1"
   style="stop-color:#006FDE"
   id="stop1515" />
			</linearGradient>
			<circle
   style="fill:url(#SVGID_00000042008995394858433840000012408658266411114403_)"
   cx="1936.5"
   cy="-2697.7"
   r="30.1"
   id="circle1518" />
			
				<linearGradient
   id="SVGID_00000043447523742450446360000009931620118934065803_"
   gradientUnits="userSpaceOnUse"
   x1="1939.1577"
   y1="-2735.752"
   x2="1940.8245"
   y2="-2708.752">
				<stop
   offset="0"
   style="stop-color:#4B2278"
   id="stop1520" />
				<stop
   offset="1"
   style="stop-color:#006FDE"
   id="stop1522" />
			</linearGradient>
			<path
   style="fill:url(#SVGID_00000043447523742450446360000009931620118934065803_)"
   d="m 1966.6,-2698.2 c -0.3,-16.6 -14,-29.8 -30.6,-29.5 -8.2,0.2 -15.6,3.6 -20.9,9"
   id="path1525" />
		</g>
		
			<linearGradient
   id="SVGID_00000163057628606262695180000016722569558597718915_"
   gradientUnits="userSpaceOnUse"
   x1="1938.5204"
   y1="-2697.4399"
   x2="1936.187"
   y2="-2652.7732">
			<stop
   offset="0"
   style="stop-color:#4B2278"
   id="stop1529" />
			<stop
   offset="1"
   style="stop-color:#006FDE"
   id="stop1531" />
		</linearGradient>
		<path
   style="fill:url(#SVGID_00000163057628606262695180000016722569558597718915_)"
   d="m 2034.7,-2671.7 c 0.2,9.1 -33.3,23.5 -97.2,24.8 -55.2,1.1 -97.9,-11.8 -98.1,-21 -0.2,-12.6 43.3,-23.7 97.2,-24.8 53.9,-1 97.8,8.4 98.1,21 z"
   id="path1534" />
		<g
   id="g1546">
			<defs
   id="defs1537">
				
					<ellipse
   id="SVGID_00000009587104462272926320000001063713096771663499_"
   transform="matrix(0.9998,-0.0193183,0.0193183,0.9998,51.9372,36.9228)"
   cx="1937.1"
   cy="-2669.8"
   rx="97.599998"
   ry="22.9" />
			</defs>
			<clipPath
   id="SVGID_00000020358544672950356830000001060481133140162731_">
				<use
   xlink:href="#SVGID_00000009587104462272926320000001063713096771663499_"
   style="overflow:visible"
   id="use1539"
   x="0"
   y="0"
   width="100%"
   height="100%" />
			</clipPath>
			
				<ellipse
   transform="matrix(0.9998,-0.01931858,0.01931858,0.9998,51.6428,36.9319)"
   style="fill:#ffffff"
   cx="1937.4"
   cy="-2654.5"
   rx="45.299999"
   ry="10.6"
   clip-path="url(#SVGID_00000020358544672950356830000001060481133140162731_)"
   id="ellipse1542" />
			<path
   style="fill:#3375c6"
   d="m 1970.7,-2653.4 c 0,2.4 -11.4,6.3 -33.2,6.7 -18.8,0.4 -33.4,-3 -33.4,-5.4 -0.1,-3.3 14.8,-6.3 33.2,-6.7 18.4,-0.4 33.3,2 33.4,5.4 z"
   clip-path="url(#SVGID_00000020358544672950356830000001060481133140162731_)"
   id="path1544" />
		</g>
		<g
   id="g1562">
			
				<linearGradient
   id="SVGID_00000106124463643597691720000017724260095788036758_"
   gradientUnits="userSpaceOnUse"
   x1="1941.1466"
   y1="-2466.3079"
   x2="1943.5262"
   y2="-2677.4221">
				<stop
   offset="0"
   style="stop-color:#4B2278"
   id="stop1548" />
				<stop
   offset="1"
   style="stop-color:#006FDE"
   id="stop1550" />
			</linearGradient>
			<path
   style="opacity:0.5;fill:url(#SVGID_00000106124463643597691720000017724260095788036758_)"
   d="m 1970.7,-2653.8 32.7,177 h -124.3 l 25,-175.8 c 0,0 1.4,-5.9 34.3,-6.3 31.7,-0.2 32.3,5.1 32.3,5.1 z"
   id="path1553" />
			
				<linearGradient
   id="SVGID_00000139995077690913620990000003907290593888748476_"
   gradientUnits="userSpaceOnUse"
   x1="1935.2577"
   y1="-2463.0613"
   x2="1937.6783"
   y2="-2677.8091">
				<stop
   offset="0"
   style="stop-color:#4B2278"
   id="stop1555" />
				<stop
   offset="1"
   style="stop-color:#006FDE"
   id="stop1557" />
			</linearGradient>
			<path
   style="opacity:0.39;fill:url(#SVGID_00000139995077690913620990000003907290593888748476_)"
   d="m 1970.7,-2653.8 -9,176.3 h -41.4 l -16.1,-175 c 0,0 1.4,-5.9 34.3,-6.3 31.6,-0.3 32.2,5 32.2,5 z"
   id="path1560" />
		</g>
		<g
   id="g1571">
			
				<linearGradient
   id="SVGID_00000023968769626616907050000017738542019936704403_"
   gradientUnits="userSpaceOnUse"
   x1="1937.5808"
   y1="-2685.6824"
   x2="1941.5808"
   y2="-2776.0159">
				<stop
   offset="0"
   style="stop-color:#4B2278"
   id="stop1564" />
				<stop
   offset="1"
   style="stop-color:#006FDE"
   id="stop1566" />
			</linearGradient>
			<path
   style="fill:url(#SVGID_00000023968769626616907050000017738542019936704403_)"
   d="m 2035.2,-2673.2 c -5.1,-7.5 -27.9,-36.7 -98.9,-35.3 -67.6,1.3 -93.8,32.1 -97.7,39.4 7.8,-4.5 38.5,-22.4 99.6,-23.5 59.6,-1.1 89.3,14.9 97,19.4 z"
   id="path1569" />
		</g>
	</g>
</g>
<g
   id="XMLID_1339_"
   transform="translate(5.7000488,-4.8065186e-5)">
	
		<linearGradient
   id="XMLID_00000067914726968579772060000004485168690414841217_"
   gradientUnits="userSpaceOnUse"
   x1="2262.5232"
   y1="-2581.8958"
   x2="2458.5232"
   y2="-2767.8958">
		<stop
   offset="0"
   style="stop-color:#4B2278"
   id="stop1577" />
		<stop
   offset="1"
   style="stop-color:#006FDE"
   id="stop1579" />
	</linearGradient>
	<path
   id="XMLID_1344_"
   style="fill:url(#XMLID_00000067914726968579772060000004485168690414841217_)"
   d="m 2292.4,-2714.7 c -57.7,0 -104.5,46.8 -104.5,104.5 0,3.3 0.2,6.6 0.5,9.8 3.4,1.8 6.9,3.5 10.6,5 26.9,11.2 55,12.2 78.7,4.7 -27.2,23.5 -71.3,28.9 -111.7,10.7 -9.2,-4.2 -17.6,-9.3 -25.1,-15.1 10.9,12.8 25.2,23.8 42.3,31.5 6.5,2.9 13,5.2 19.6,7 2.7,4.5 5.7,8.8 9,12.8 25.6,-0.2 53,-10.6 75.3,-31 21.5,-19.6 34.2,-44.7 37.4,-69.4 9.8,34.6 -3.9,76.9 -37.5,105.8 -22.3,19.2 -49.1,28.8 -74.2,28.8 16.4,5 34.7,5.2 52.9,0.4 8.5,2.3 17.5,3.5 26.7,3.5 57.7,0 104.5,-46.8 104.5,-104.5 0,-57.8 -46.8,-104.5 -104.5,-104.5 z m -17.4,65.6 c -1.2,-8 -7.5,-14.2 -15.4,-15.4 8,-1.2 14.2,-7.5 15.4,-15.4 1.2,8 7.5,14.2 15.4,15.4 -7.9,1.2 -14.2,7.4 -15.4,15.4 z m 34.2,-30.2 c -0.4,-2.9 -2.7,-5.1 -5.5,-5.5 2.9,-0.4 5.1,-2.7 5.5,-5.5 0.4,2.9 2.7,5.1 5.5,5.5 -2.8,0.4 -5,2.6 -5.5,5.5 z m 31.1,124.4 c -0.4,-2.6 -2.5,-4.7 -5.1,-5.1 2.6,-0.4 4.7,-2.5 5.1,-5.1 0.4,2.6 2.5,4.7 5.1,5.1 -2.6,0.4 -4.7,2.5 -5.1,5.1 z m 8.1,-47.3 c -0.6,-4.1 -3.9,-7.4 -8,-8 4.1,-0.6 7.4,-3.9 8,-8 0.6,4.1 3.9,7.4 8,8 -4.2,0.6 -7.4,3.8 -8,8 z m 20.8,27.2 c -0.3,-1.9 -1.7,-3.3 -3.6,-3.6 1.9,-0.3 3.3,-1.7 3.6,-3.6 0.3,1.9 1.7,3.3 3.6,3.6 -1.8,0.3 -3.3,1.7 -3.6,3.6 z" />
	
		<linearGradient
   id="XMLID_00000128444623093022057790000012795495348216058247_"
   gradientUnits="userSpaceOnUse"
   x1="2419.8955"
   y1="-2632.5247"
   x2="2173.8955"
   y2="-2498.5247">
		<stop
   offset="0"
   style="stop-color:#4B2278"
   id="stop1583" />
		<stop
   offset="1"
   style="stop-color:#006FDE"
   id="stop1585" />
	</linearGradient>
	<path
   id="XMLID_1342_"
   style="fill:url(#XMLID_00000128444623093022057790000012795495348216058247_)"
   d="m 2286.9,-2538.5 c -22.3,19.2 -49.1,28.8 -74.2,28.8 16.4,5 34.7,5.2 52.9,0.5 37,-20.3 62.1,-59.6 62.1,-104.8 0,-2.5 -0.1,-5 -0.2,-7.5 0,29.1 -14.1,60.2 -40.6,83 z" />
	
		<linearGradient
   id="XMLID_00000121979226482458590050000014940526705717558401_"
   gradientUnits="userSpaceOnUse"
   x1="2412.3958"
   y1="-2555.4751"
   x2="2120.3958"
   y2="-2584.4751">
		<stop
   offset="0"
   style="stop-color:#4B2278"
   id="stop1589" />
		<stop
   offset="1"
   style="stop-color:#006FDE"
   id="stop1591" />
	</linearGradient>
	<path
   id="XMLID_1340_"
   style="fill:url(#XMLID_00000121979226482458590050000014940526705717558401_)"
   d="m 2275,-2588.7 c -27.4,21.7 -70,26.3 -109.2,8.5 -9.2,-4.2 -17.6,-9.3 -25.1,-15.1 10.9,12.8 25.2,23.8 42.3,31.5 6.5,2.9 13,5.2 19.6,7 2.1,0.2 4.2,0.2 6.3,0.2 26.9,0.1 50.7,-12.5 66.1,-32.1 z" />
</g>
<g
   id="g1610"
   transform="translate(5.7000488,-4.8065186e-5)">
	<path
   class="st1"
   d="m 131.9,213.1 -0.9,3 -0.1,0.4 -0.9,2.8 -0.9,2.9 c 2,1.5 4,3.2 6.1,4.5 l 1.2,0.8 1.3,-0.5 c 1.9,-0.7 5.7,-2.2 7.5,-3.2 l 4.4,-2.5 -4.4,-2.5 c -4.1,-2.4 -8,-5.1 -12.3,-8.5 z"
   id="path1596" />
	<path
   class="st1"
   d="m 205.6,142.4 -2.8,0.8 -0.9,0.3 -3.2,1 -3,0.9 0.1,0.1 c 5.9,6.8 10.6,13.9 14.4,21 l -1.9,4.5 c -5.4,12 -13.8,23.8 -24.1,34.1 -15.2,15 -33.1,25.5 -50.4,29.3 -5.1,1.2 -10,1.5 -14.5,1.4 l -4.5,2.7 -3.8,2.3 -1,0.6 -3.7,2.2 -3.2,1.9 c 5.3,1.8 11,2.8 17.2,2.8 5.2,0 10.7,-0.6 16.3,-1.9 19.6,-4.4 39.6,-16 56.4,-32.6 9.8,-9.7 17.9,-20.8 23.9,-32.3 6.2,18.8 4.7,36.1 -5.9,46.5 -8.1,7.9 -21,11 -36.3,8.5 l -1,-0.2 -0.9,0.5 c -2.9,1.8 -5.9,3.4 -8.9,4.9 l -7,3.4 7.6,2 c 7,1.8 13.8,2.8 20.2,2.8 14.4,0 26.6,-4.5 35.3,-13 21.2,-20.8 16,-60.9 -11.2,-95.3 z"
   id="path1598" />
	<path
   class="st1"
   d="m 77.2,219.7 1.8,-2.9 2.2,-3.5 0.6,-1 2.4,-3.7 2.4,-3.7 c -0.7,-7.3 0.1,-15.2 2.5,-23.5 2.8,4.7 5.9,9.2 9.4,13.7 l 2.9,-0.9 6.5,-2.1 3,-1 -0.7,-0.8 c -6.4,-7.7 -11.4,-15.9 -15.3,-24.1 5.5,-11.4 13.3,-22.8 23.4,-33.1 10.5,-10.8 22.4,-19.2 34.5,-24.9 7.6,3.8 15.3,8.8 22.7,15 l 1,-2.9 1,-3 0.3,-0.8 0.9,-2.7 1,-2.9 c -3.9,-3.1 -7.9,-5.9 -11.9,-8.4 0.7,-0.2 1.5,-0.5 2.2,-0.7 6.5,-1.5 12.6,-2 18.1,-1.5 l 3.7,-2.2 3.8,-2.3 1.4,-0.9 3.2,-2 3.1,-1.9 c -10.3,-4.1 -22.5,-4.7 -36.1,-1.6 -5.1,1.2 -10.2,2.9 -15.3,5 -25.2,-10.4 -49.9,-9.1 -64.6,5.8 -11.6,11.7 -15.4,29.6 -10.8,50.3 1.2,5.2 3,10.4 5.1,15.6 -8,19.3 -9.7,38.4 -4.4,53.6 z m 11.2,-71.8 c -3.6,-16.5 -1,-30.3 7.5,-38.9 9.2,-9.4 24.3,-11.2 40.8,-6.8 -9.6,5.8 -18.9,13.2 -27.4,21.9 -8,8.2 -14.8,17.2 -20.2,26.4 -0.2,-0.8 -0.5,-1.7 -0.7,-2.6 z"
   id="path1600" />
	<path
   class="st1"
   d="m 228,119.3 -3.9,6.3 -1.9,3 c 1.7,5 2.2,10.7 1.7,17.1 l -0.1,1 0.5,0.8 c 1.8,2.8 3.4,5.7 4.9,8.6 l 3.7,7.3 1.7,-8 c 3.2,-15.1 1.4,-28.5 -4.9,-39 z"
   id="path1602" />
	<path
   class="st1"
   d="m 106.5,236.6 3.4,-2 11.3,-6.7 3,-9.4 0.9,-2.9 1.3,-4 1.6,-5.1 1.6,-4.9 c 1.9,-4.1 -1.3,-8.4 -5.4,-8.4 -0.6,0 -1.2,0.1 -1.9,0.3 l -16,5.2 -4.1,1.3 -7.1,2.3 -6.9,10.9 -1.9,3 -2,3.2 -0.6,1 -1.7,2.7 -2,2.9 -19.1,30.1 5,4.7 30.5,-18.2 2.9,-1.7 3.1,-1.9 0.8,-0.5 z"
   id="path1604" />
	<path
   class="st1"
   d="m 199.3,100.2 -3,1.9 -9.6,5.9 -2.3,6.7 -2.3,6.6 -4.7,13.7 c -1.4,4.1 1.8,7.9 5.6,7.9 0.8,0 1.6,-0.2 2.4,-0.5 l 13.1,-3.9 6.1,-1.8 7.1,-2.1 7.5,-12.2 1.5,-2.5 24.8,-40 -4.6,-5.1 -31.8,19.4 -2.9,1.8 -2.7,1.7 -1.2,0.7 z"
   id="path1606" />
	<path
   class="st1"
   d="m 181.6,168.7 c 0,-15.3 -12.4,-27.7 -27.7,-27.7 -15.3,0 -27.7,12.4 -27.7,27.7 0,15.3 12.4,27.7 27.7,27.7 15.3,0 27.7,-12.4 27.7,-27.7 z"
   id="path1608" />
</g>
<g
   id="g1626"
   transform="translate(5.7000488,-4.8065186e-5)">
	<path
   class="st0"
   d="m -459,183.7 -1.1,3.5 -0.1,0.5 -1,3.2 -1.1,3.4 c 2.4,1.7 4.6,3.7 7,5.3 l 1.4,0.9 1.5,-0.6 c 2.2,-0.8 6.6,-2.6 8.7,-3.8 l 5.1,-2.9 -5.1,-2.9 c -4.8,-2.8 -9.3,-5.9 -14.2,-9.9 z"
   id="path1612" />
	<path
   class="st0"
   d="m -373.4,101.5 -3.3,1 -1,0.3 -3.8,1.1 -3.4,1 0.1,0.1 c 6.8,7.9 12.3,16.2 16.7,24.4 l -2.2,5.2 c -6.3,14 -16,27.6 -28,39.6 -17.6,17.5 -38.4,29.6 -58.5,34.1 -6,1.4 -11.6,1.8 -16.9,1.7 l -5.2,3.1 -4.4,2.6 -1.2,0.7 -4.3,2.6 -3.8,2.2 c 6.1,2.1 12.7,3.2 20,3.2 6.1,0 12.4,-0.7 18.9,-2.2 22.7,-5.1 46,-18.5 65.5,-37.9 11.4,-11.3 20.8,-24.2 27.7,-37.5 7.3,21.8 5.4,42 -6.9,54 -9.4,9.2 -24.4,12.7 -42.2,9.9 l -1.2,-0.2 -1,0.6 c -3.4,2.1 -6.9,3.9 -10.3,5.6 l -8.1,4 8.8,2.3 c 8.2,2.1 16.1,3.2 23.5,3.2 16.7,0 30.9,-5.2 41,-15.1 24.7,-24.1 18.6,-70.7 -13,-110.7 z"
   id="path1614" />
	<path
   class="st0"
   d="m -522.5,191.3 2.1,-3.4 2.6,-4 0.7,-1.2 2.7,-4.3 2.8,-4.3 c -0.8,-8.4 0.2,-17.6 2.9,-27.3 3.2,5.4 6.8,10.7 10.9,15.9 l 3.4,-1.1 7.6,-2.5 3.4,-1.1 -0.8,-1 c -7.4,-9 -13.3,-18.5 -17.8,-28 6.3,-13.2 15.5,-26.5 27.2,-38.5 12.3,-12.6 26,-22.3 40.1,-28.9 8.9,4.4 17.8,10.2 26.3,17.4 l 1.1,-3.3 1.2,-3.5 0.3,-0.9 1.1,-3.2 1.1,-3.3 c -4.6,-3.6 -9.1,-6.8 -13.8,-9.7 0.8,-0.2 1.7,-0.6 2.5,-0.8 7.5,-1.7 14.6,-2.3 21,-1.7 l 4.3,-2.6 4.4,-2.7 1.7,-1 3.7,-2.3 3.6,-2.2 c -12,-4.7 -26.2,-5.5 -41.9,-1.9 -5.9,1.4 -11.9,3.3 -17.8,5.8 -29.3,-12.1 -58,-10.6 -75,6.7 -13.4,13.6 -17.9,34.4 -12.6,58.5 1.3,6 3.4,12.1 5.9,18.1 -9.1,22.5 -11.1,44.7 -4.9,62.3 z m 13,-83.4 c -4.2,-19.1 -1.1,-35.2 8.7,-45.2 10.7,-10.9 28.2,-13 47.4,-7.9 -11.2,6.8 -22,15.3 -31.8,25.5 -9.3,9.6 -17.2,20 -23.4,30.7 -0.3,-1 -0.7,-2.1 -0.9,-3.1 z"
   id="path1616" />
	<path
   class="st0"
   d="m -347.3,74.7 -4.5,7.3 -2.2,3.5 c 1.9,5.8 2.6,12.5 1.9,19.9 l -0.1,1.1 0.6,1 c 2.1,3.3 4,6.6 5.7,10 l 4.3,8.5 2,-9.3 c 3.7,-17.6 1.6,-33.2 -5.7,-45.3 z"
   id="path1618" />
	<path
   class="st0"
   d="m -488.5,211 3.9,-2.3 13.1,-7.8 3.5,-10.9 1.1,-3.4 1.5,-4.6 1.9,-6 1.8,-5.7 c 2.2,-4.8 -1.5,-9.8 -6.2,-9.8 -0.7,0 -1.4,0.1 -2.2,0.3 l -18.6,6 -4.8,1.5 -8.3,2.7 -8.1,12.7 -2.2,3.5 -2.3,3.7 -0.7,1.1 -2,3.2 -2.1,3.4 -22.2,34.9 5.8,5.4 35.4,-21.1 3.4,-2 3.6,-2.2 1,-0.6 z"
   id="path1620" />
	<path
   class="st0"
   d="m -380.6,52.5 -3.5,2.2 -11.1,6.8 -2.7,7.8 -2.6,7.7 -5.4,15.9 c -1.6,4.7 2.1,9.2 6.5,9.2 0.9,0 1.9,-0.2 2.8,-0.6 l 15.3,-4.6 7.1,-2.1 8.3,-2.5 8.7,-14.1 1.8,-2.9 28.8,-46.5 -5.3,-5.9 -37,22.6 -3.4,2.1 -3.1,1.9 -1.4,0.9 z"
   id="path1622" />
	<path
   class="st0"
   d="m -401.2,132.1 c 0,-17.8 -14.4,-32.2 -32.2,-32.2 -17.8,0 -32.2,14.4 -32.2,32.2 0,17.8 14.4,32.2 32.2,32.2 17.8,0 32.2,-14.4 32.2,-32.2 z"
   id="path1624" />
</g>
<g
   id="g1642"
   transform="translate(5.7000488,-4.8065186e-5)">
	<path
   class="st0"
   d="m -113.1,97.5 -0.1,0.3 v 0 l -0.1,0.2 -0.1,0.2 c 0.2,0.1 0.3,0.3 0.5,0.4 l 0.1,0.1 h 0.1 c 0.2,-0.1 0.5,-0.2 0.6,-0.3 l 0.4,-0.2 -0.4,-0.2 c -0.4,-0.2 -0.7,-0.4 -1.1,-0.7 z"
   id="path1628" />
	<path
   class="st0"
   d="m -106.7,91.5 -0.2,0.1 h -0.1 l -0.3,0.1 -0.3,0.1 v 0 c 0.5,0.6 0.9,1.2 1.2,1.8 l -0.2,0.4 c -0.5,1 -1.2,2 -2.1,2.9 -1.3,1.3 -2.8,2.2 -4.3,2.5 -0.4,0.1 -0.9,0.1 -1.2,0.1 l -0.4,0.2 -0.3,0.2 -0.1,0.1 -0.3,0.2 -0.3,0.2 c 0.5,0.2 0.9,0.2 1.5,0.2 0.4,0 0.9,-0.1 1.4,-0.2 1.7,-0.4 3.4,-1.4 4.8,-2.8 0.8,-0.8 1.5,-1.8 2.1,-2.8 0.5,1.6 0.4,3.1 -0.5,4 -0.7,0.7 -1.8,0.9 -3.1,0.7 h -0.1 -0.1 c -0.3,0.2 -0.5,0.3 -0.8,0.4 l -0.6,0.3 0.6,0.2 c 0.6,0.2 1.2,0.2 1.7,0.2 1.2,0 2.3,-0.4 3,-1.1 1.8,-1.8 1.4,-5.2 -1,-8.2 z"
   id="path1630" />
	<path
   class="st0"
   d="m -117.8,98.1 0.2,-0.2 0.2,-0.3 0.1,-0.1 0.2,-0.3 0.2,-0.3 c -0.1,-0.6 0,-1.3 0.2,-2 0.2,0.4 0.5,0.8 0.8,1.2 l 0.2,-0.1 0.6,-0.2 0.3,-0.1 -0.1,-0.1 c -0.5,-0.7 -1,-1.4 -1.3,-2.1 0.5,-1 1.1,-2 2,-2.8 0.9,-0.9 1.9,-1.7 3,-2.1 0.7,0.3 1.3,0.8 1.9,1.3 l 0.1,-0.2 0.1,-0.3 v -0.1 l 0.1,-0.2 0.1,-0.2 c -0.3,-0.3 -0.7,-0.5 -1,-0.7 0.1,0 0.1,0 0.2,-0.1 0.6,-0.1 1.1,-0.2 1.6,-0.1 l 0.3,-0.2 0.3,-0.2 0.1,-0.1 0.3,-0.2 0.3,-0.2 c -0.9,-0.4 -1.9,-0.4 -3.1,-0.1 -0.4,0.1 -0.9,0.2 -1.3,0.4 -2.2,-0.9 -4.3,-0.8 -5.6,0.5 -1,1 -1.3,2.5 -0.9,4.3 0.1,0.4 0.3,0.9 0.4,1.3 -0.8,1.7 -0.9,3.3 -0.5,4.6 z m 1,-6.2 c -0.3,-1.4 -0.1,-2.6 0.6,-3.3 0.8,-0.8 2.1,-1 3.5,-0.6 -0.8,0.5 -1.6,1.1 -2.4,1.9 -0.7,0.7 -1.3,1.5 -1.7,2.3 0,-0.1 0,-0.2 0,-0.3 z"
   id="path1632" />
	<path
   class="st0"
   d="m -104.8,89.5 -0.3,0.5 -0.2,0.3 c 0.1,0.4 0.2,0.9 0.1,1.5 v 0.1 0.1 c 0.2,0.2 0.3,0.5 0.4,0.7 l 0.3,0.6 0.1,-0.7 c 0.3,-1.3 0.1,-2.5 -0.4,-3.4 z"
   id="path1634" />
	<path
   class="st0"
   d="m -115.2,99.6 0.3,-0.2 1,-0.6 0.3,-0.8 0.1,-0.2 0.1,-0.3 0.1,-0.4 0.1,-0.4 c 0.2,-0.4 -0.1,-0.7 -0.5,-0.7 -0.1,0 -0.1,0 -0.2,0 l -1.4,0.4 -0.4,0.1 -0.6,0.2 -0.6,0.9 -0.2,0.3 -0.2,0.3 -0.1,0.1 -0.1,0.2 -0.2,0.2 -1.6,2.6 0.4,0.4 2.6,-1.6 0.2,-0.1 0.3,-0.2 h 0.1 z"
   id="path1636" />
	<path
   class="st0"
   d="m -107.3,87.8 -0.3,0.2 -0.8,0.5 -0.2,0.6 -0.2,0.6 -0.4,1.2 c -0.1,0.3 0.2,0.7 0.5,0.7 0.1,0 0.1,0 0.2,0 l 1.1,-0.3 0.5,-0.2 0.6,-0.2 0.6,-1 0.1,-0.2 2.1,-3.4 -0.4,-0.4 -2.7,1.7 -0.2,0.2 -0.2,0.1 -0.1,0.1 z"
   id="path1638" />
	<path
   class="st0"
   d="m -108.8,93.7 c 0,-1.3 -1.1,-2.4 -2.4,-2.4 -1.3,0 -2.4,1.1 -2.4,2.4 0,1.3 1.1,2.4 2.4,2.4 1.4,0 2.4,-1.1 2.4,-2.4 z"
   id="path1640" />
</g>
</svg>
