<svg width="231" height="231" viewBox="0 0 231 231" fill="none" xmlns="http://www.w3.org/2000/svg">
<circle cx="115.5" cy="115.5" r="110.5" fill="url(#paint0_linear_1_20)" stroke="url(#paint1_linear_1_20)" stroke-width="10"/>
<path d="M115.464 98.5868C106.192 98.5868 98.6592 106.12 98.6592 115.391C98.6592 124.663 106.192 132.196 115.464 132.196C124.735 132.196 132.268 124.663 132.268 115.391C132.268 106.12 124.735 98.5868 115.464 98.5868Z" fill="white"/>
<path d="M94.8202 138.498C95.3997 138.715 95.9792 138.86 96.5586 138.86C97.7176 138.86 98.8041 138.425 99.6733 137.556C101.412 135.818 101.412 132.993 99.6733 131.254C98.8041 130.385 97.6451 129.951 96.4862 129.951C95.3273 129.951 94.1683 130.385 93.2991 131.254C91.9953 132.558 91.6331 134.514 92.3575 136.107L83.3757 139.584L46 184.058L46.7968 184.855L91.271 147.479L94.8202 138.498Z" fill="white"/>
<path d="M88.0115 156.171C91.9229 159.503 95.9067 162.473 100.108 165.153C101.629 164.574 104.961 163.27 106.41 162.401C101.267 159.431 97.1381 156.389 92.4299 152.405L88.0115 156.171Z" fill="white"/>
<path d="M139.584 83.3757L136.107 92.3575C135.528 92.1402 134.948 91.9953 134.441 91.9953C133.282 91.9953 132.196 92.4299 131.327 93.2991C129.588 95.0375 129.588 97.8624 131.327 99.6008C132.196 100.47 133.355 100.905 134.514 100.905C135.673 100.905 136.832 100.47 137.701 99.6008C139.005 98.297 139.367 96.3413 138.643 94.7478L147.624 91.271L185 46.7968L184.203 46L139.584 83.3757Z" fill="white"/>
<path d="M133.862 85.6936C128.502 82.3617 122.2 80.4059 115.464 80.4059C96.1965 80.4059 80.4784 96.124 80.4784 115.391C80.4784 122.128 82.4341 128.429 85.766 133.789L87.6493 133.065C87.9391 131.182 88.8083 129.443 90.1845 127.995C90.4742 127.705 90.764 127.488 91.1261 127.198C89.3877 123.649 88.3737 119.593 88.3737 115.391C88.3737 100.47 100.542 88.3012 115.464 88.3012C119.737 88.3012 123.721 89.3153 127.27 91.0537C127.488 90.7639 127.705 90.4018 127.995 90.112C129.371 88.7358 131.109 87.8666 133.065 87.5769L133.862 85.6936Z" fill="white"/>
<path d="M115.464 142.482C111.19 142.482 107.206 141.467 103.657 139.729C103.44 140.019 103.223 140.381 102.933 140.671C101.557 142.047 99.8181 142.916 97.8624 143.206L97.1381 145.089C102.498 148.421 108.8 150.377 115.536 150.377C134.804 150.377 150.522 134.659 150.522 115.391C150.522 108.655 148.566 102.353 145.234 96.9932L143.351 97.7176C143.061 99.6008 142.192 101.339 140.816 102.788C140.526 103.078 140.236 103.295 139.874 103.585C141.612 107.134 142.626 111.19 142.626 115.391C142.554 130.385 130.385 142.482 115.464 142.482Z" fill="white"/>
<path d="M57.7342 115.464C50.4909 133.282 50.1287 150.811 57.8067 163.053L61.6456 158.489C56.4304 149.001 56.4304 136.18 60.9937 122.635C64.6154 129.661 69.2512 136.542 74.7561 142.916L78.4502 138.57C72.2934 131.254 67.3679 123.431 63.8187 115.464C68.4544 105.033 75.6253 94.5305 85.1141 85.0417C94.3856 75.7702 104.816 68.5268 115.464 63.7462C123.287 67.223 131.182 72.0761 138.643 78.3778L142.989 74.6837C136.47 69.1063 129.516 64.543 122.635 60.9938C124.953 60.197 127.198 59.5451 129.443 59.038C140.888 56.4304 150.884 57.3721 158.562 61.5732L163.125 57.7342C154.071 51.9396 141.902 50.4185 128.212 53.5331C123.939 54.4747 119.665 55.851 115.391 57.6618C94.6754 49.1871 74.394 50.1287 62.2975 62.2251C52.9536 71.5691 49.839 85.9833 53.6055 102.715C54.5472 106.989 55.9958 111.263 57.7342 115.464ZM66.209 66.209C75.7702 56.6477 91.4883 55.2715 108.293 60.9213C98.7316 65.8468 89.3877 72.6556 81.0578 81.0579C72.5831 89.5326 65.8468 98.8765 60.9937 108.293C60.2694 106.047 59.5451 103.802 59.038 101.484C55.7785 86.6352 58.3137 74.1042 66.209 66.209V66.209Z" fill="white"/>
<path d="M152.55 92.2851C158.779 99.7457 163.705 107.641 167.181 115.391L167.109 115.609C162.328 126.256 155.012 136.687 145.958 145.741C132.631 159.069 116.912 168.268 101.629 171.745C90.1845 174.352 80.1886 173.411 72.5107 169.209L67.9474 173.048C73.9593 176.887 81.2751 178.843 89.4601 178.843C93.7337 178.843 98.2246 178.336 102.86 177.25C119.158 173.556 135.89 163.849 149.942 149.797C158.2 141.54 165.081 132.196 170.079 122.562C175.728 139.367 174.352 155.085 164.791 164.646C157.548 171.89 146.176 174.57 133.065 172.469C130.602 173.99 128.14 175.366 125.604 176.598C131.182 178.046 136.542 178.843 141.54 178.843C152.55 178.843 162.039 175.366 168.775 168.63C186.304 151.101 180.437 116.261 156.316 87.939L152.55 92.2851Z" fill="white"/>
<path d="M169.282 72.3658C172.469 78.2329 173.7 85.5487 172.976 93.7337C174.642 96.3413 176.163 99.0214 177.467 101.629C180.219 88.3736 178.698 76.6394 173.048 67.7301L169.282 72.3658Z" fill="white"/>
<defs>
<linearGradient id="paint0_linear_1_20" x1="115" y1="5" x2="115" y2="208" gradientUnits="userSpaceOnUse">
<stop stop-color="#7636A6"/>
<stop offset="1" stop-color="#301742"/>
</linearGradient>
<linearGradient id="paint1_linear_1_20" x1="115" y1="-11" x2="115" y2="334" gradientUnits="userSpaceOnUse">
<stop stop-color="white"/>
<stop offset="0.994792" stop-color="#1B1B1B"/>
</linearGradient>
</defs>
</svg>
